<?xml version="1.0" encoding="utf-8"?>
<!-- Generator: Adobe Illustrator 27.0.0, SVG Export Plug-In . SVG Version: 6.00 Build 0)  -->
<svg version="1.1" xmlns="http://www.w3.org/2000/svg" xmlns:xlink="http://www.w3.org/1999/xlink" x="0px" y="0px"
	 viewBox="0 0 500 500" style="enable-background:new 0 0 500 500;" xml:space="preserve">
<style type="text/css">
	.st0{display:none;}
	.st1{display:inline;opacity:0.8;fill:url(#SVGID_1_);}
	.st2{display:none;opacity:0.2;fill:url(#SVGID_00000127739754024084531180000003228138782896338328_);}
	.st3{fill:url(#SVGID_00000058557218425357999270000000538765619301413520_);}
	.st4{opacity:0.05;}
	.st5{clip-path:url(#SVGID_00000078751099024432207180000011943119811095303322_);}
	.st6{fill:url(#SVGID_00000049938384644081140900000006569192798637407920_);}
	.st7{clip-path:url(#SVGID_00000099624268809507993470000016125989644787450286_);}
	.st8{fill:url(#SVGID_00000118396429092704977450000006804805761965112711_);}
	.st9{fill:url(#SVGID_00000037674267558213989390000010407908614807872420_);}
	.st10{display:inline;}
	.st11{fill:#FFFFFF;}
	.st12{fill:#4D4D4D;}
	.st13{fill:#999999;}
	.st14{opacity:0.2;fill:#999999;}
	.st15{fill:#FFFFFF;stroke:#B3B3B3;stroke-width:0.3962;stroke-miterlimit:10;}
	.st16{fill:url(#SVGID_00000074409211966704454080000000539974936154451586_);}
	.st17{fill:url(#SVGID_00000096018566516032917110000016541255199304016297_);}
	.st18{fill:#D31C85;}
	.st19{fill:none;stroke:#FFFFFF;stroke-width:0.5544;stroke-linejoin:round;stroke-miterlimit:10;}
	.st20{fill:none;stroke:#FFFFFF;stroke-width:0.5544;stroke-linecap:round;stroke-linejoin:round;stroke-miterlimit:10;}
	.st21{fill:url(#SVGID_00000091010715333262320370000003533844905577672611_);}
	.st22{fill:url(#SVGID_00000160167434891239123730000017508287988079685261_);}
	.st23{fill:none;stroke:#FFFFFF;stroke-width:0.4537;stroke-miterlimit:10;}
	.st24{fill:url(#SVGID_00000078743117333501216090000000329019835182285738_);}
	.st25{fill:url(#SVGID_00000167361657900771225380000008497948192454382002_);}
	.st26{opacity:0.15;}
	.st27{fill:url(#SVGID_00000104675837401561246070000015433131190413704840_);}
	.st28{opacity:0.3;}
	.st29{opacity:0.6;fill:url(#SVGID_00000153695223133338407300000004363338873750821781_);stroke:#FFFFFF;stroke-miterlimit:10;}
	.st30{clip-path:url(#SVGID_00000118360068955171419380000006150667243609779328_);}
	.st31{fill:#F9FBFC;}
</style>
<g id="BACKGROUND" class="st0">
	<linearGradient id="SVGID_1_" gradientUnits="userSpaceOnUse" x1="-54.9916" y1="430.09" x2="573.2153" y2="59.1493">
		<stop  offset="0" style="stop-color:#FBB46F"/>
		<stop  offset="0.2439" style="stop-color:#F15E58"/>
		<stop  offset="0.7035" style="stop-color:#EC3573"/>
		<stop  offset="1" style="stop-color:#7A4A9D"/>
	</linearGradient>
	<rect class="st1" width="500" height="500"/>
</g>
<g id="OBJECTS">
	<g>
		
			<linearGradient id="SVGID_00000039850759041255088500000002214234571000807087_" gradientUnits="userSpaceOnUse" x1="49.5177" y1="255.5556" x2="464.1575" y2="255.5556">
			<stop  offset="0" style="stop-color:#FBB46F"/>
			<stop  offset="0.2439" style="stop-color:#F15E58"/>
			<stop  offset="0.7035" style="stop-color:#EC3573"/>
			<stop  offset="1" style="stop-color:#7A4A9D"/>
		</linearGradient>
		<path style="display:none;opacity:0.2;fill:url(#SVGID_00000039850759041255088500000002214234571000807087_);" d="M454.12,380.2
			H59.55c-5.54,0-10.03-4.49-10.03-10.03V140.95c0-5.54,4.49-10.03,10.03-10.03h394.57c5.54,0,10.03,4.49,10.03,10.03v229.22
			C464.16,375.71,459.67,380.2,454.12,380.2z"/>
		<g>
			<g>
				<g>
					
						<linearGradient id="SVGID_00000150801052689064827760000011732423150270951869_" gradientUnits="userSpaceOnUse" x1="35.8425" y1="246.7238" x2="458.0647" y2="246.7238">
						<stop  offset="0" style="stop-color:#FFFFFF"/>
						<stop  offset="1" style="stop-color:#E7E7EA"/>
					</linearGradient>
					<path style="fill:url(#SVGID_00000150801052689064827760000011732423150270951869_);" d="M447.85,373.65H46.06
						c-5.64,0-10.22-4.57-10.22-10.22V130.02c0-5.64,4.57-10.22,10.22-10.22h401.79c5.64,0,10.22,4.57,10.22,10.22v233.41
						C458.06,369.07,453.49,373.65,447.85,373.65z"/>
					<g class="st4">
						<defs>
							<path id="SVGID_00000139972843347287031500000010418704657547974294_" class="st4" d="M447.85,373.65H46.06
								c-5.64,0-10.22-4.57-10.22-10.22V130.02c0-5.64,4.57-10.22,10.22-10.22h401.79c5.64,0,10.22,4.57,10.22,10.22v233.41
								C458.06,369.07,453.49,373.65,447.85,373.65z"/>
						</defs>
						<clipPath id="SVGID_00000175307094333552913670000008762397661125896580_">
							<use xlink:href="#SVGID_00000139972843347287031500000010418704657547974294_"  style="overflow:visible;"/>
						</clipPath>
						<g style="clip-path:url(#SVGID_00000175307094333552913670000008762397661125896580_);">
							
								<linearGradient id="SVGID_00000161590603038200702900000007640593847819102592_" gradientUnits="userSpaceOnUse" x1="229.0541" y1="205.2663" x2="564.9514" y2="394.1549">
								<stop  offset="0" style="stop-color:#FFFFFF"/>
								<stop  offset="1" style="stop-color:#E7E7EA;stop-opacity:0"/>
							</linearGradient>
							
								<rect x="-16.08" y="68.33" style="fill:url(#SVGID_00000161590603038200702900000007640593847819102592_);" width="605.1" height="338.44"/>
						</g>
					</g>
				</g>
				<g>
					<defs>
						<path id="SVGID_00000172398697772070760600000011313316037312789948_" d="M447.85,373.65H46.06
							c-5.64,0-10.22-4.57-10.22-10.22V130.02c0-5.64,4.57-10.22,10.22-10.22h401.79c5.64,0,10.22,4.57,10.22,10.22v233.41
							C458.06,369.07,453.49,373.65,447.85,373.65z"/>
					</defs>
					<clipPath id="SVGID_00000099656150703882095460000015267382563808161951_">
						<use xlink:href="#SVGID_00000172398697772070760600000011313316037312789948_"  style="overflow:visible;"/>
					</clipPath>
					<g style="clip-path:url(#SVGID_00000099656150703882095460000015267382563808161951_);">
						
							<linearGradient id="SVGID_00000033352267024889403890000014483976967255769759_" gradientUnits="userSpaceOnUse" x1="226.4901" y1="230.2707" x2="485.0808" y2="230.2707">
							<stop  offset="0" style="stop-color:#FBB46F"/>
							<stop  offset="0.2439" style="stop-color:#F15E58"/>
							<stop  offset="0.7035" style="stop-color:#EC3573"/>
							<stop  offset="1" style="stop-color:#7A4A9D"/>
						</linearGradient>
						<path style="fill:url(#SVGID_00000033352267024889403890000014483976967255769759_);" d="M239.07,353.45
							c-21.3-9.75-13.98-34.31,10.17-44.47c24.14-10.17,62.26-50.83,39.39-76.24s-29.23-59.72-3.81-82.59
							c25.41-22.87,10.17-47.01,10.17-47.01h166.46c0,0,44.47,158.83,11.44,185.52c-33.04,26.68-49.56,29.23-77.51,15.25
							c-27.95-13.98-57.81-9.53-69.25,6.99C314.68,327.4,276.56,370.61,239.07,353.45z"/>
						
							<linearGradient id="SVGID_00000008840325527711208660000006510905459632532120_" gradientUnits="userSpaceOnUse" x1="-12.8755" y1="373.4253" x2="74.6489" y2="373.4253">
							<stop  offset="0" style="stop-color:#FBB46F"/>
							<stop  offset="0.2439" style="stop-color:#F15E58"/>
							<stop  offset="0.7035" style="stop-color:#EC3573"/>
							<stop  offset="1" style="stop-color:#7A4A9D"/>
						</linearGradient>
						<path style="fill:url(#SVGID_00000008840325527711208660000006510905459632532120_);" d="M-12.88,350.57
							c32.48-44.44,123.93-27.35,71.79,46.15C6.78,470.23-12.88,350.57-12.88,350.57z"/>
					</g>
				</g>
			</g>
			<g class="st0">
				<g class="st10">
					<g>
						<g>
							<g>
								<g>
									<path class="st11" d="M333.37,144.68h1.16l1.82,5.59h-1.05l-0.85-2.97c-0.18-0.59-0.34-1.23-0.51-1.84h-0.04
										c-0.15,0.62-0.32,1.25-0.5,1.84l-0.86,2.97h-1.01L333.37,144.68z M332.63,147.98h2.63v0.78h-2.63V147.98z"/>
									<path class="st11" d="M337.85,149.83h-0.03l-0.08,0.44h-0.78v-6.04h0.98v1.56l-0.03,0.7c0.35-0.31,0.78-0.52,1.21-0.52
										c1.05,0,1.66,0.84,1.66,2.13c0,1.44-0.86,2.27-1.79,2.27C338.61,150.37,338.2,150.18,337.85,149.83z M339.78,148.11
										c0-0.84-0.27-1.33-0.91-1.33c-0.3,0-0.6,0.15-0.92,0.47v1.96c0.29,0.26,0.6,0.35,0.84,0.35
										C339.35,149.56,339.78,149.06,339.78,148.11z"/>
									<path class="st11" d="M341.5,148.17c0-1.4,0.95-2.2,2-2.2s2,0.81,2,2.2c0,1.39-0.95,2.2-2,2.2S341.5,149.56,341.5,148.17z
										 M344.48,148.17c0-0.84-0.37-1.4-0.98-1.4s-0.98,0.56-0.98,1.4s0.37,1.39,0.98,1.39S344.48,149.01,344.48,148.17z"/>
									<path class="st11" d="M346.42,148.7v-2.63h0.98v2.51c0,0.69,0.2,0.95,0.65,0.95c0.37,0,0.61-0.17,0.93-0.58v-2.87h0.98v4.2
										h-0.81l-0.08-0.62h-0.03c-0.37,0.44-0.78,0.72-1.35,0.72C346.81,150.37,346.42,149.76,346.42,148.7z"/>
									<path class="st11" d="M351.37,148.85v-2h-0.6v-0.74l0.65-0.04l0.12-1.15h0.82v1.15h1.07v0.78h-1.07v2
										c0,0.49,0.19,0.74,0.59,0.74c0.14,0,0.31-0.05,0.44-0.1l0.17,0.72c-0.23,0.08-0.52,0.15-0.86,0.15
										C351.72,150.37,351.37,149.76,351.37,148.85z"/>
								</g>
							</g>
							<g>
								<g>
									<path class="st11" d="M363.35,144.68h1.76c1.24,0,2.16,0.43,2.16,1.72c0,1.25-0.92,1.81-2.12,1.81h-0.8v2.05h-0.99V144.68z
										 M365.06,147.42c0.83,0,1.23-0.33,1.23-1.02c0-0.69-0.43-0.93-1.27-0.93h-0.69v1.95H365.06z"/>
									<path class="st11" d="M368.23,146.07h0.81l0.08,0.75h0.03c0.3-0.55,0.74-0.85,1.19-0.85c0.21,0,0.35,0.03,0.48,0.09
										l-0.17,0.85c-0.15-0.04-0.26-0.07-0.43-0.07c-0.34,0-0.74,0.23-0.99,0.87v2.56h-0.98V146.07z"/>
									<path class="st11" d="M371.15,148.17c0-1.4,0.95-2.2,2-2.2s2,0.81,2,2.2c0,1.39-0.95,2.2-2,2.2
										S371.15,149.56,371.15,148.17z M374.13,148.17c0-0.84-0.37-1.4-0.98-1.4s-0.98,0.56-0.98,1.4s0.37,1.39,0.98,1.39
										S374.13,149.01,374.13,148.17z"/>
									<path class="st11" d="M375.1,151.92l0.18-0.73c0.11,0.03,0.23,0.06,0.36,0.06c0.38,0,0.48-0.26,0.48-0.75v-4.43h0.98v4.41
										c0,0.89-0.33,1.55-1.33,1.55C375.48,152.03,375.26,151.98,375.1,151.92z M376.01,144.78c0-0.33,0.26-0.56,0.61-0.56
										c0.35,0,0.61,0.23,0.61,0.56c0,0.32-0.26,0.56-0.61,0.56C376.27,145.34,376.01,145.1,376.01,144.78z"/>
									<path class="st11" d="M378.09,148.17c0-1.36,0.95-2.2,1.93-2.2c1.13,0,1.73,0.82,1.73,1.99c0,0.19-0.02,0.38-0.04,0.48
										h-2.66c0.08,0.75,0.56,1.17,1.24,1.17c0.36,0,0.67-0.11,0.97-0.3l0.33,0.61c-0.4,0.27-0.91,0.45-1.44,0.45
										C379,150.37,378.09,149.56,378.09,148.17z M380.9,147.77c0-0.65-0.29-1.04-0.86-1.04c-0.49,0-0.92,0.37-1,1.04H380.9z"/>
									<path class="st11" d="M382.42,148.17c0-1.4,0.99-2.2,2.11-2.2c0.53,0,0.92,0.21,1.23,0.47l-0.48,0.64
										c-0.22-0.19-0.43-0.31-0.7-0.31c-0.68,0-1.15,0.56-1.15,1.4s0.46,1.39,1.11,1.39c0.33,0,0.63-0.16,0.87-0.36l0.4,0.65
										c-0.39,0.35-0.89,0.52-1.37,0.52C383.3,150.37,382.42,149.56,382.42,148.17z"/>
									<path class="st11" d="M386.79,148.85v-2h-0.6v-0.74l0.65-0.04l0.12-1.15h0.82v1.15h1.07v0.78h-1.07v2
										c0,0.49,0.19,0.74,0.59,0.74c0.14,0,0.31-0.05,0.44-0.1l0.17,0.72c-0.23,0.08-0.52,0.15-0.86,0.15
										C387.15,150.37,386.79,149.76,386.79,148.85z"/>
									<path class="st11" d="M389.31,149.79l0.46-0.63c0.37,0.29,0.73,0.47,1.16,0.47c0.46,0,0.67-0.22,0.67-0.5
										c0-0.35-0.46-0.51-0.9-0.68c-0.55-0.21-1.18-0.52-1.18-1.22c0-0.73,0.59-1.25,1.53-1.25c0.58,0,1.05,0.24,1.39,0.5
										l-0.45,0.6c-0.29-0.22-0.59-0.37-0.92-0.37c-0.42,0-0.62,0.2-0.62,0.46c0,0.33,0.42,0.46,0.88,0.63
										c0.57,0.21,1.2,0.49,1.2,1.27c0,0.72-0.57,1.3-1.63,1.3C390.33,150.37,389.72,150.12,389.31,149.79z"/>
								</g>
							</g>
							<g>
								<g>
									<path class="st11" d="M398.65,147.49c0-1.83,1.14-2.92,2.56-2.92c0.7,0,1.26,0.33,1.61,0.71l-0.53,0.64
										c-0.29-0.29-0.62-0.49-1.06-0.49c-0.91,0-1.56,0.77-1.56,2.02c0,1.27,0.6,2.05,1.54,2.05c0.5,0,0.88-0.23,1.19-0.57
										l0.53,0.62c-0.45,0.53-1.04,0.81-1.76,0.81C399.77,150.37,398.65,149.34,398.65,147.49z"/>
									<path class="st11" d="M403.51,148.17c0-1.4,0.95-2.2,2-2.2s2,0.81,2,2.2c0,1.39-0.95,2.2-2,2.2
										S403.51,149.56,403.51,148.17z M406.49,148.17c0-0.84-0.37-1.4-0.98-1.4s-0.98,0.56-0.98,1.4s0.37,1.39,0.98,1.39
										S406.49,149.01,406.49,148.17z"/>
									<path class="st11" d="M408.48,146.07h0.81l0.07,0.57h0.03c0.38-0.37,0.8-0.67,1.38-0.67c0.9,0,1.29,0.61,1.29,1.67v2.63
										h-0.98v-2.51c0-0.69-0.2-0.95-0.65-0.95c-0.37,0-0.61,0.18-0.96,0.52v2.93h-0.98V146.07z"/>
									<path class="st11" d="M413.41,148.85v-2h-0.6v-0.74l0.65-0.04l0.12-1.15h0.82v1.15h1.07v0.78h-1.07v2
										c0,0.49,0.19,0.74,0.59,0.74c0.14,0,0.31-0.05,0.44-0.1l0.17,0.72c-0.23,0.08-0.52,0.15-0.86,0.15
										C413.77,150.37,413.41,149.76,413.41,148.85z"/>
									<path class="st11" d="M416.12,149.14c0-0.9,0.74-1.37,2.47-1.55c-0.01-0.45-0.19-0.83-0.76-0.83
										c-0.42,0-0.81,0.19-1.18,0.41l-0.36-0.66c0.46-0.29,1.06-0.55,1.72-0.55c1.05,0,1.56,0.65,1.56,1.81v2.48h-0.81l-0.07-0.46
										h-0.03c-0.38,0.32-0.81,0.57-1.3,0.57C416.63,150.37,416.12,149.87,416.12,149.14z M418.59,149.14v-0.94
										c-1.14,0.14-1.52,0.44-1.52,0.86c0,0.37,0.25,0.53,0.61,0.53C418.02,149.6,418.28,149.43,418.59,149.14z"/>
									<path class="st11" d="M420.48,148.17c0-1.4,0.99-2.2,2.11-2.2c0.53,0,0.92,0.21,1.23,0.47l-0.48,0.64
										c-0.22-0.19-0.43-0.31-0.7-0.31c-0.68,0-1.15,0.56-1.15,1.4s0.46,1.39,1.11,1.39c0.33,0,0.63-0.16,0.87-0.36l0.4,0.65
										c-0.39,0.35-0.89,0.52-1.37,0.52C421.36,150.37,420.48,149.56,420.48,148.17z"/>
									<path class="st11" d="M424.85,148.85v-2h-0.6v-0.74l0.65-0.04l0.12-1.15h0.82v1.15h1.07v0.78h-1.07v2
										c0,0.49,0.19,0.74,0.59,0.74c0.14,0,0.31-0.05,0.44-0.1l0.17,0.72c-0.23,0.08-0.52,0.15-0.86,0.15
										C425.21,150.37,424.85,149.76,424.85,148.85z"/>
								</g>
							</g>
						</g>
						<g>
							<g>
								<g>
									<path class="st12" d="M76.69,207.96h1.43v10.01h4.9v1.21h-6.32V207.96z"/>
									<path class="st12" d="M84.25,215.03c0-2.77,1.81-4.37,3.85-4.37s3.85,1.6,3.85,4.37c0,2.75-1.81,4.35-3.85,4.35
										S84.25,217.78,84.25,215.03z M90.5,215.03c0-1.9-0.97-3.2-2.4-3.2s-2.4,1.3-2.4,3.2c0,1.9,0.97,3.18,2.4,3.18
										S90.5,216.94,90.5,215.03z"/>
									<path class="st12" d="M94.13,210.87h1.16l0.12,1.51h0.05c0.58-1.05,1.43-1.72,2.36-1.72c0.37,0,0.63,0.05,0.89,0.17
										l-0.26,1.23c-0.29-0.09-0.47-0.14-0.81-0.14c-0.7,0-1.54,0.51-2.1,1.91v5.33h-1.41V210.87z"/>
									<path class="st12" d="M99.45,215.03c0-2.7,1.82-4.37,3.73-4.37c2.12,0,3.32,1.52,3.32,3.9c0,0.3-0.03,0.59-0.07,0.8h-5.59
										c0.1,1.76,1.18,2.9,2.76,2.9c0.8,0,1.45-0.26,2.07-0.66l0.5,0.92c-0.73,0.48-1.61,0.86-2.74,0.86
										C101.21,219.38,99.45,217.76,99.45,215.03z M105.25,214.35c0-1.66-0.75-2.57-2.05-2.57c-1.17,0-2.21,0.94-2.38,2.57H105.25
										z"/>
									<path class="st12" d="M108.54,210.87h1.16l0.12,1.2h0.05c0.73-0.79,1.6-1.41,2.58-1.41c1.27,0,1.95,0.61,2.29,1.58
										c0.86-0.93,1.73-1.58,2.74-1.58c1.71,0,2.53,1.13,2.53,3.25v5.26h-1.41v-5.08c0-1.55-0.49-2.21-1.55-2.21
										c-0.64,0-1.31,0.42-2.08,1.28v6.02h-1.41v-5.08c0-1.55-0.49-2.21-1.55-2.21c-0.62,0-1.31,0.42-2.08,1.28v6.02h-1.41V210.87
										z"/>
									<path class="st12" d="M125.87,208.25c0-0.55,0.42-0.91,0.97-0.91s0.97,0.36,0.97,0.91c0,0.53-0.42,0.91-0.97,0.91
										S125.87,208.78,125.87,208.25z M126.13,210.87h1.41v8.31h-1.41V210.87z"/>
									<path class="st12" d="M130.34,210.87h1.16l0.12,0.96h0.05c0.75-0.62,1.69-1.16,2.65-1.16c2.15,0,3.29,1.67,3.29,4.23
										c0,2.83-1.7,4.48-3.6,4.48c-0.76,0-1.54-0.35-2.3-0.96l0.04,1.45v2.81h-1.41V210.87z M136.15,214.91
										c0-1.83-0.63-3.06-2.19-3.06c-0.7,0-1.41,0.39-2.22,1.13v4.35c0.75,0.63,1.47,0.86,2.02,0.86
										C135.14,218.2,136.15,216.96,136.15,214.91z"/>
									<path class="st12" d="M138.9,218.23l0.69-0.93c0.72,0.58,1.45,0.98,2.45,0.98c1.09,0,1.63-0.58,1.63-1.29
										c0-0.85-0.98-1.23-1.9-1.57c-1.16-0.43-2.48-1-2.48-2.4c0-1.33,1.06-2.36,2.87-2.36c1.03,0,1.94,0.42,2.58,0.93l-0.67,0.9
										c-0.57-0.42-1.16-0.74-1.89-0.74c-1.05,0-1.53,0.56-1.53,1.19c0,0.79,0.9,1.09,1.84,1.44c1.2,0.45,2.53,0.94,2.53,2.52
										c0,1.35-1.07,2.47-3.03,2.47C140.82,219.38,139.68,218.88,138.9,218.23z"/>
									<path class="st12" d="M146.87,216.13v-5.26h1.41v5.08c0,1.55,0.47,2.21,1.57,2.21c0.85,0,1.44-0.42,2.22-1.4v-5.89h1.41
										v8.31h-1.16l-0.12-1.3h-0.05c-0.77,0.91-1.6,1.51-2.74,1.51C147.66,219.38,146.87,218.25,146.87,216.13z"/>
									<path class="st12" d="M156.28,210.87h1.16l0.12,1.2h0.05c0.73-0.79,1.6-1.41,2.58-1.41c1.27,0,1.95,0.61,2.29,1.58
										c0.86-0.93,1.73-1.58,2.74-1.58c1.71,0,2.53,1.13,2.53,3.25v5.26h-1.41v-5.08c0-1.55-0.49-2.21-1.55-2.21
										c-0.64,0-1.31,0.42-2.08,1.28v6.02h-1.41v-5.08c0-1.55-0.49-2.21-1.55-2.21c-0.62,0-1.31,0.42-2.08,1.28v6.02h-1.41V210.87
										z"/>
									<path class="st12" d="M172.95,218.23l0.69-0.93c0.72,0.58,1.45,0.98,2.45,0.98c1.09,0,1.63-0.58,1.63-1.29
										c0-0.85-0.98-1.23-1.9-1.57c-1.16-0.43-2.48-1-2.48-2.4c0-1.33,1.06-2.36,2.87-2.36c1.03,0,1.94,0.42,2.58,0.93l-0.67,0.9
										c-0.57-0.42-1.16-0.74-1.89-0.74c-1.05,0-1.53,0.56-1.53,1.19c0,0.79,0.9,1.09,1.84,1.44c1.2,0.45,2.53,0.94,2.53,2.52
										c0,1.35-1.07,2.47-3.03,2.47C174.87,219.38,173.73,218.88,172.95,218.23z"/>
									<path class="st12" d="M180.78,208.25c0-0.55,0.42-0.91,0.97-0.91s0.97,0.36,0.97,0.91c0,0.53-0.42,0.91-0.97,0.91
										S180.78,208.78,180.78,208.25z M181.04,210.87h1.41v8.31h-1.41V210.87z"/>
									<path class="st12" d="M185.49,216.61v-4.59h-1.24v-1.06l1.3-0.08l0.17-2.33h1.17v2.33h2.25v1.15h-2.25v4.62
										c0,1.02,0.33,1.6,1.28,1.6c0.3,0,0.68-0.11,0.95-0.22l0.27,1.06c-0.47,0.16-1.02,0.31-1.54,0.31
										C186.09,219.38,185.49,218.26,185.49,216.61z"/>
									<path class="st12" d="M193.92,217.02c0-1.81,1.56-2.71,5.1-3.1c0-1.07-0.36-2.1-1.71-2.1c-0.96,0-1.83,0.46-2.48,0.89
										l-0.55-0.96c0.76-0.5,1.93-1.08,3.26-1.08c2.03,0,2.88,1.35,2.88,3.42v5.1h-1.16l-0.12-0.99h-0.05
										c-0.79,0.66-1.72,1.2-2.75,1.2C194.97,219.38,193.92,218.52,193.92,217.02z M199.03,217.15v-2.31
										c-2.78,0.33-3.73,1.02-3.73,2.08c0,0.94,0.64,1.33,1.46,1.33C197.56,218.25,198.22,217.86,199.03,217.15z"/>
									<path class="st12" d="M203.05,210.87h1.16l0.12,1.2h0.05c0.73-0.79,1.6-1.41,2.58-1.41c1.27,0,1.95,0.61,2.29,1.58
										c0.86-0.93,1.73-1.58,2.74-1.58c1.71,0,2.53,1.13,2.53,3.25v5.26h-1.41v-5.08c0-1.55-0.49-2.21-1.55-2.21
										c-0.64,0-1.31,0.42-2.08,1.28v6.02h-1.41v-5.08c0-1.55-0.49-2.21-1.55-2.21c-0.62,0-1.31,0.42-2.08,1.28v6.02h-1.41V210.87
										z"/>
									<path class="st12" d="M216.61,215.03c0-2.7,1.82-4.37,3.73-4.37c2.12,0,3.32,1.52,3.32,3.9c0,0.3-0.03,0.59-0.07,0.8H218
										c0.1,1.76,1.18,2.9,2.76,2.9c0.8,0,1.45-0.26,2.07-0.66l0.5,0.92c-0.73,0.48-1.61,0.86-2.74,0.86
										C218.37,219.38,216.61,217.76,216.61,215.03z M222.41,214.35c0-1.66-0.75-2.57-2.05-2.57c-1.17,0-2.21,0.94-2.38,2.57
										H222.41z"/>
									<path class="st12" d="M225.95,216.61v-4.59h-1.24v-1.06l1.3-0.08l0.17-2.33h1.17v2.33h2.25v1.15h-2.25v4.62
										c0,1.02,0.33,1.6,1.28,1.6c0.3,0,0.68-0.11,0.95-0.22l0.27,1.06c-0.47,0.16-1.02,0.31-1.54,0.31
										C226.55,219.38,225.95,218.26,225.95,216.61z"/>
									<path class="st12" d="M230.89,221.25c0.96-0.42,1.54-1.18,1.54-2.12l-0.15-1.26l0.69,1.03c-0.19,0.23-0.44,0.29-0.71,0.29
										c-0.54,0-1.02-0.34-1.02-0.98c0-0.61,0.48-0.98,1.04-0.98c0.75,0,1.19,0.62,1.19,1.65c0,1.48-0.86,2.63-2.24,3.2
										L230.89,221.25z"/>
									<path class="st12" d="M75.94,233.84c0-2.77,1.87-4.37,4-4.37c1.09,0,1.85,0.45,2.43,0.98l-0.72,0.93
										c-0.48-0.44-1-0.73-1.65-0.73c-1.5,0-2.61,1.3-2.61,3.2c0,1.9,1.04,3.18,2.57,3.18c0.76,0,1.43-0.37,1.95-0.83l0.61,0.94
										c-0.75,0.67-1.69,1.06-2.69,1.06C77.63,238.19,75.94,236.59,75.94,233.84z"/>
									<path class="st12" d="M83.74,233.84c0-2.77,1.81-4.37,3.85-4.37s3.85,1.6,3.85,4.37c0,2.75-1.81,4.35-3.85,4.35
										S83.74,236.59,83.74,233.84z M89.98,233.84c0-1.9-0.97-3.2-2.4-3.2s-2.4,1.3-2.4,3.2c0,1.9,0.97,3.18,2.4,3.18
										S89.98,235.74,89.98,233.84z"/>
									<path class="st12" d="M93.62,229.67h1.16l0.12,1.2h0.05c0.79-0.78,1.65-1.4,2.79-1.4c1.75,0,2.54,1.13,2.54,3.25v5.26
										h-1.41v-5.08c0-1.55-0.47-2.21-1.57-2.21c-0.85,0-1.44,0.43-2.27,1.28v6.02h-1.41V229.67z"/>
									<path class="st12" d="M102.05,237.03l0.69-0.93c0.72,0.58,1.45,0.98,2.45,0.98c1.09,0,1.63-0.58,1.63-1.29
										c0-0.85-0.98-1.23-1.9-1.57c-1.16-0.43-2.48-1-2.48-2.4c0-1.33,1.06-2.36,2.87-2.36c1.03,0,1.94,0.42,2.58,0.93l-0.67,0.9
										c-0.57-0.42-1.16-0.74-1.89-0.74c-1.05,0-1.53,0.56-1.53,1.19c0,0.79,0.9,1.09,1.84,1.44c1.2,0.45,2.53,0.94,2.53,2.52
										c0,1.35-1.07,2.47-3.03,2.47C103.97,238.19,102.83,237.69,102.05,237.03z"/>
									<path class="st12" d="M109.51,233.84c0-2.7,1.82-4.37,3.73-4.37c2.12,0,3.32,1.52,3.32,3.9c0,0.3-0.03,0.59-0.07,0.8h-5.59
										c0.1,1.76,1.18,2.9,2.76,2.9c0.8,0,1.45-0.26,2.07-0.66l0.5,0.92c-0.73,0.48-1.61,0.86-2.74,0.86
										C111.28,238.19,109.51,236.57,109.51,233.84z M115.32,233.16c0-1.66-0.75-2.57-2.05-2.57c-1.17,0-2.21,0.94-2.38,2.57
										H115.32z"/>
									<path class="st12" d="M117.99,233.84c0-2.77,1.87-4.37,4-4.37c1.09,0,1.85,0.45,2.43,0.98l-0.72,0.93
										c-0.48-0.44-1-0.73-1.65-0.73c-1.5,0-2.61,1.3-2.61,3.2c0,1.9,1.04,3.18,2.57,3.18c0.76,0,1.43-0.37,1.95-0.83l0.61,0.94
										c-0.75,0.67-1.69,1.06-2.69,1.06C119.68,238.19,117.99,236.59,117.99,233.84z"/>
									<path class="st12" d="M126.65,235.41v-4.59h-1.24v-1.06l1.3-0.08l0.17-2.33h1.17v2.33h2.25v1.15h-2.25v4.62
										c0,1.02,0.33,1.6,1.28,1.6c0.3,0,0.68-0.11,0.95-0.22l0.27,1.06c-0.47,0.16-1.02,0.31-1.54,0.31
										C127.25,238.19,126.65,237.06,126.65,235.41z"/>
									<path class="st12" d="M131.57,233.84c0-2.7,1.82-4.37,3.73-4.37c2.12,0,3.32,1.52,3.32,3.9c0,0.3-0.03,0.59-0.07,0.8h-5.59
										c0.1,1.76,1.18,2.9,2.76,2.9c0.8,0,1.45-0.26,2.07-0.66l0.5,0.92c-0.73,0.48-1.61,0.86-2.74,0.86
										C133.33,238.19,131.57,236.57,131.57,233.84z M137.37,233.16c0-1.66-0.75-2.57-2.05-2.57c-1.17,0-2.21,0.94-2.38,2.57
										H137.37z"/>
									<path class="st12" d="M140.91,235.41v-4.59h-1.24v-1.06l1.3-0.08l0.17-2.33h1.17v2.33h2.25v1.15h-2.25v4.62
										c0,1.02,0.33,1.6,1.28,1.6c0.3,0,0.68-0.11,0.95-0.22l0.27,1.06c-0.47,0.16-1.02,0.31-1.54,0.31
										C141.51,238.19,140.91,237.06,140.91,235.41z"/>
									<path class="st12" d="M146.33,234.94v-5.26h1.41v5.08c0,1.55,0.47,2.21,1.57,2.21c0.85,0,1.44-0.42,2.22-1.4v-5.89h1.41
										v8.31h-1.16l-0.12-1.3h-0.05c-0.77,0.91-1.6,1.51-2.74,1.51C147.11,238.19,146.33,237.06,146.33,234.94z"/>
									<path class="st12" d="M155.74,229.67h1.16l0.12,1.51h0.05c0.58-1.05,1.43-1.72,2.36-1.72c0.37,0,0.63,0.05,0.89,0.17
										l-0.26,1.23c-0.29-0.09-0.47-0.14-0.81-0.14c-0.7,0-1.54,0.51-2.1,1.91v5.33h-1.41V229.67z"/>
									<path class="st12" d="M164.47,233.84c0-2.7,1.82-4.37,3.73-4.37c2.12,0,3.32,1.52,3.32,3.9c0,0.3-0.03,0.59-0.07,0.8h-5.59
										c0.1,1.76,1.18,2.9,2.76,2.9c0.8,0,1.45-0.26,2.07-0.66l0.5,0.92c-0.73,0.48-1.61,0.86-2.74,0.86
										C166.23,238.19,164.47,236.57,164.47,233.84z M170.28,233.16c0-1.66-0.75-2.57-2.05-2.57c-1.17,0-2.21,0.94-2.38,2.57
										H170.28z"/>
									<path class="st12" d="M173.57,236.31V225.8h1.41v10.61c0,0.43,0.19,0.6,0.39,0.6c0.08,0,0.15,0,0.31-0.03l0.19,1.07
										c-0.2,0.07-0.44,0.13-0.81,0.13C174,238.19,173.57,237.51,173.57,236.31z"/>
									<path class="st12" d="M177.67,227.06c0-0.55,0.42-0.91,0.97-0.91s0.97,0.36,0.97,0.91c0,0.53-0.42,0.91-0.97,0.91
										S177.67,227.59,177.67,227.06z M177.92,229.67h1.41v8.31h-1.41V229.67z"/>
									<path class="st12" d="M182.38,235.41v-4.59h-1.24v-1.06l1.3-0.08l0.17-2.33h1.17v2.33h2.25v1.15h-2.25v4.62
										c0,1.02,0.33,1.6,1.28,1.6c0.3,0,0.68-0.11,0.95-0.22l0.27,1.06c-0.47,0.16-1.02,0.31-1.54,0.31
										C182.98,238.19,182.38,237.06,182.38,235.41z"/>
									<path class="st12" d="M187.62,237.12c0-0.65,0.46-1.09,1.02-1.09c0.56,0,1.02,0.44,1.02,1.09c0,0.62-0.46,1.06-1.02,1.06
										C188.08,238.19,187.62,237.74,187.62,237.12z"/>
								</g>
							</g>
							<g>
								<g>
									<path class="st13" d="M75.77,254.86h1.12c1.38,0,2.12,0.8,2.12,2.23c0,1.43-0.74,2.26-2.09,2.26h-1.15V254.86z
										 M76.85,258.88c1.05,0,1.57-0.66,1.57-1.79c0-1.13-0.52-1.76-1.57-1.76h-0.51v3.55H76.85z"/>
									<path class="st13" d="M79.68,257.69c0-1.11,0.73-1.75,1.54-1.75s1.54,0.64,1.54,1.75c0,1.1-0.73,1.74-1.54,1.74
										S79.68,258.79,79.68,257.69z M82.18,257.69c0-0.76-0.39-1.28-0.96-1.28s-0.96,0.52-0.96,1.28s0.39,1.27,0.96,1.27
										S82.18,258.45,82.18,257.69z"/>
									<path class="st13" d="M83.63,256.02h0.46l0.05,0.48h0.02c0.32-0.31,0.66-0.56,1.11-0.56c0.7,0,1.01,0.45,1.01,1.3v2.11
										h-0.56v-2.03c0-0.62-0.19-0.88-0.63-0.88c-0.34,0-0.58,0.17-0.91,0.51v2.41h-0.56V256.02z"/>
									<path class="st13" d="M87.12,257.69c0-1.08,0.73-1.75,1.49-1.75c0.85,0,1.33,0.61,1.33,1.56c0,0.12-0.01,0.24-0.03,0.32
										h-2.24c0.04,0.7,0.47,1.16,1.1,1.16c0.32,0,0.58-0.1,0.83-0.27l0.2,0.37c-0.29,0.19-0.65,0.34-1.1,0.34
										C87.83,259.43,87.12,258.78,87.12,257.69z M89.45,257.42c0-0.67-0.3-1.03-0.82-1.03c-0.47,0-0.88,0.38-0.95,1.03H89.45z"/>
									<path class="st13" d="M90.51,257.69c0-1.11,0.75-1.75,1.6-1.75c0.44,0,0.74,0.18,0.97,0.39l-0.29,0.37
										c-0.19-0.17-0.4-0.29-0.66-0.29c-0.6,0-1.04,0.52-1.04,1.28s0.42,1.27,1.03,1.27c0.3,0,0.57-0.15,0.78-0.33l0.24,0.38
										c-0.3,0.27-0.68,0.42-1.07,0.42C91.19,259.43,90.51,258.79,90.51,257.69z"/>
									<path class="st13" d="M95.25,256.02h0.46l0.05,0.48h0.02c0.32-0.31,0.66-0.56,1.11-0.56c0.7,0,1.01,0.45,1.01,1.3v2.11
										h-0.56v-2.03c0-0.62-0.19-0.88-0.63-0.88c-0.34,0-0.58,0.17-0.91,0.51v2.41h-0.56V256.02z"/>
									<path class="st13" d="M98.88,254.98c0-0.22,0.17-0.36,0.39-0.36c0.22,0,0.39,0.14,0.39,0.36c0,0.21-0.17,0.36-0.39,0.36
										C99.05,255.34,98.88,255.19,98.88,254.98z M98.99,256.02h0.56v3.32h-0.56V256.02z"/>
									<path class="st13" d="M101.19,259h-0.02l-0.05,0.34h-0.45v-4.87h0.56v1.33l-0.02,0.6c0.3-0.26,0.67-0.46,1.04-0.46
										c0.86,0,1.32,0.67,1.32,1.69c0,1.13-0.68,1.8-1.44,1.8C101.83,259.43,101.48,259.27,101.19,259z M103,257.64
										c0-0.73-0.25-1.22-0.88-1.22c-0.28,0-0.57,0.15-0.89,0.45v1.74c0.29,0.25,0.59,0.34,0.81,0.34
										C102.59,258.96,103,258.46,103,257.64z"/>
									<path class="st13" d="M104.45,254.48h0.56v1.33l-0.02,0.68c0.31-0.3,0.65-0.55,1.1-0.55c0.7,0,1.01,0.45,1.01,1.3v2.11
										h-0.56v-2.03c0-0.62-0.19-0.88-0.63-0.88c-0.34,0-0.58,0.17-0.91,0.51v2.41h-0.56V254.48z"/>
									<path class="st13" d="M109.33,258.49c0-0.72,0.62-1.09,2.04-1.24c0-0.43-0.14-0.84-0.69-0.84c-0.38,0-0.73,0.18-0.99,0.36
										l-0.22-0.38c0.31-0.2,0.77-0.43,1.3-0.43c0.81,0,1.15,0.54,1.15,1.37v2.04h-0.46l-0.05-0.4h-0.02
										c-0.32,0.26-0.69,0.48-1.1,0.48C109.75,259.43,109.33,259.08,109.33,258.49z M111.37,258.54v-0.92
										c-1.11,0.13-1.49,0.41-1.49,0.83c0,0.38,0.26,0.53,0.58,0.53C110.79,258.98,111.05,258.82,111.37,258.54z"/>
									<path class="st13" d="M112.98,256.02h0.46l0.05,0.61h0.02c0.23-0.42,0.57-0.69,0.94-0.69c0.15,0,0.25,0.02,0.35,0.07
										l-0.1,0.49c-0.11-0.04-0.19-0.05-0.32-0.05c-0.28,0-0.62,0.2-0.84,0.76v2.13h-0.56V256.02z"/>
									<path class="st13" d="M115.11,257.69c0-1.11,0.75-1.75,1.6-1.75c0.44,0,0.74,0.18,0.97,0.39l-0.29,0.37
										c-0.19-0.17-0.4-0.29-0.66-0.29c-0.6,0-1.04,0.52-1.04,1.28s0.42,1.27,1.03,1.27c0.3,0,0.57-0.15,0.78-0.33l0.24,0.38
										c-0.3,0.27-0.68,0.42-1.07,0.42C115.78,259.43,115.11,258.79,115.11,257.69z"/>
									<path class="st13" d="M118.43,258.13v-2.11h0.56v2.03c0,0.62,0.19,0.88,0.63,0.88c0.34,0,0.58-0.17,0.89-0.56v-2.36h0.56
										v3.32h-0.46l-0.05-0.52h-0.02c-0.31,0.36-0.64,0.6-1.1,0.6C118.74,259.43,118.43,258.98,118.43,258.13z"/>
									<path class="st13" d="M121.96,260.18c0.38-0.17,0.62-0.47,0.62-0.85l-0.06-0.5l0.28,0.41c-0.08,0.09-0.18,0.12-0.28,0.12
										c-0.22,0-0.41-0.14-0.41-0.39c0-0.25,0.19-0.39,0.42-0.39c0.3,0,0.48,0.25,0.48,0.66c0,0.59-0.34,1.05-0.9,1.28
										L121.96,260.18z"/>
									<path class="st13" d="M125.02,257.69c0-1.08,0.73-1.75,1.49-1.75c0.85,0,1.33,0.61,1.33,1.56c0,0.12-0.01,0.24-0.03,0.32
										h-2.24c0.04,0.7,0.47,1.16,1.1,1.16c0.32,0,0.58-0.1,0.83-0.27l0.2,0.37c-0.29,0.19-0.65,0.34-1.1,0.34
										C125.72,259.43,125.02,258.78,125.02,257.69z M127.34,257.42c0-0.67-0.3-1.03-0.82-1.03c-0.47,0-0.88,0.38-0.95,1.03
										H127.34z"/>
									<path class="st13" d="M128.75,258.32v-1.84h-0.49v-0.43l0.52-0.03l0.07-0.93h0.47v0.93h0.9v0.46h-0.9v1.85
										c0,0.41,0.13,0.64,0.51,0.64c0.12,0,0.27-0.04,0.38-0.09l0.11,0.42c-0.19,0.06-0.41,0.12-0.62,0.12
										C128.99,259.43,128.75,258.98,128.75,258.32z"/>
									<path class="st13" d="M132.33,256.02h0.46l0.05,0.48h0.02c0.29-0.31,0.64-0.56,1.03-0.56c0.51,0,0.78,0.24,0.92,0.63
										c0.34-0.37,0.69-0.63,1.1-0.63c0.68,0,1.01,0.45,1.01,1.3v2.11h-0.56v-2.03c0-0.62-0.2-0.88-0.62-0.88
										c-0.26,0-0.53,0.17-0.83,0.51v2.41h-0.56v-2.03c0-0.62-0.2-0.88-0.62-0.88c-0.25,0-0.53,0.17-0.83,0.51v2.41h-0.56V256.02z
										"/>
									<path class="st13" d="M137.75,257.69c0-1.11,0.73-1.75,1.54-1.75s1.54,0.64,1.54,1.75c0,1.1-0.73,1.74-1.54,1.74
										S137.75,258.79,137.75,257.69z M140.25,257.69c0-0.76-0.39-1.28-0.96-1.28s-0.96,0.52-0.96,1.28s0.39,1.27,0.96,1.27
										S140.25,258.45,140.25,257.69z"/>
									<path class="st13" d="M141.71,258.68v-4.2h0.56v4.24c0,0.17,0.08,0.24,0.16,0.24c0.03,0,0.06,0,0.12-0.01l0.08,0.43
										c-0.08,0.03-0.18,0.05-0.32,0.05C141.88,259.43,141.71,259.16,141.71,258.68z"/>
									<path class="st13" d="M143.45,258.68v-4.2h0.56v4.24c0,0.17,0.08,0.24,0.16,0.24c0.03,0,0.06,0,0.12-0.01l0.08,0.43
										c-0.08,0.03-0.18,0.05-0.32,0.05C143.62,259.43,143.45,259.16,143.45,258.68z"/>
									<path class="st13" d="M145.09,254.98c0-0.22,0.17-0.36,0.39-0.36c0.22,0,0.39,0.14,0.39,0.36c0,0.21-0.17,0.36-0.39,0.36
										C145.26,255.34,145.09,255.19,145.09,254.98z M145.19,256.02h0.56v3.32h-0.56V256.02z"/>
									<path class="st13" d="M146.51,258.97l0.28-0.37c0.29,0.23,0.58,0.39,0.98,0.39c0.44,0,0.65-0.23,0.65-0.52
										c0-0.34-0.39-0.49-0.76-0.63c-0.47-0.17-0.99-0.4-0.99-0.96c0-0.53,0.43-0.94,1.15-0.94c0.41,0,0.78,0.17,1.03,0.37
										l-0.27,0.36c-0.23-0.17-0.46-0.3-0.76-0.3c-0.42,0-0.61,0.22-0.61,0.48c0,0.32,0.36,0.44,0.74,0.58
										c0.48,0.18,1.01,0.38,1.01,1.01c0,0.54-0.43,0.99-1.21,0.99C147.28,259.43,146.82,259.23,146.51,258.97z"/>
									<path class="st13" d="M151.21,258.32v-1.84h-0.49v-0.43l0.52-0.03l0.07-0.93h0.47v0.93h0.9v0.46h-0.9v1.85
										c0,0.41,0.13,0.64,0.51,0.64c0.12,0,0.27-0.04,0.38-0.09l0.11,0.42c-0.19,0.06-0.41,0.12-0.62,0.12
										C151.45,259.43,151.21,258.98,151.21,258.32z"/>
									<path class="st13" d="M153.17,257.69c0-1.08,0.73-1.75,1.49-1.75c0.85,0,1.33,0.61,1.33,1.56c0,0.12-0.01,0.24-0.03,0.32
										h-2.24c0.04,0.7,0.47,1.16,1.1,1.16c0.32,0,0.58-0.1,0.83-0.27l0.2,0.37c-0.29,0.19-0.65,0.34-1.1,0.34
										C153.88,259.43,153.17,258.78,153.17,257.69z M155.5,257.42c0-0.67-0.3-1.03-0.82-1.03c-0.47,0-0.88,0.38-0.95,1.03H155.5z
										"/>
									<path class="st13" d="M156.81,258.68v-4.2h0.56v4.24c0,0.17,0.08,0.24,0.16,0.24c0.03,0,0.06,0,0.12-0.01l0.08,0.43
										c-0.08,0.03-0.18,0.05-0.32,0.05C156.99,259.43,156.81,259.16,156.81,258.68z"/>
									<path class="st13" d="M158.55,258.68v-4.2h0.56v4.24c0,0.17,0.08,0.24,0.16,0.24c0.03,0,0.06,0,0.12-0.01l0.08,0.43
										c-0.08,0.03-0.18,0.05-0.32,0.05C158.73,259.43,158.55,259.16,158.55,258.68z"/>
									<path class="st13" d="M160.25,258.13v-2.11h0.56v2.03c0,0.62,0.19,0.88,0.63,0.88c0.34,0,0.58-0.17,0.89-0.56v-2.36h0.56
										v3.32h-0.46l-0.05-0.52h-0.02c-0.31,0.36-0.64,0.6-1.1,0.6C160.57,259.43,160.25,258.98,160.25,258.13z"/>
									<path class="st13" d="M163.65,258.97l0.28-0.37c0.29,0.23,0.58,0.39,0.98,0.39c0.44,0,0.65-0.23,0.65-0.52
										c0-0.34-0.39-0.49-0.76-0.63c-0.47-0.17-0.99-0.4-0.99-0.96c0-0.53,0.43-0.94,1.15-0.94c0.41,0,0.78,0.17,1.03,0.37
										l-0.27,0.36c-0.23-0.17-0.46-0.3-0.76-0.3c-0.42,0-0.61,0.22-0.61,0.48c0,0.32,0.36,0.44,0.74,0.58
										c0.48,0.18,1.01,0.38,1.01,1.01c0,0.54-0.43,0.99-1.21,0.99C164.42,259.43,163.96,259.23,163.65,258.97z"/>
									<path class="st13" d="M168,257.69c0-1.08,0.73-1.75,1.49-1.75c0.85,0,1.33,0.61,1.33,1.56c0,0.12-0.01,0.24-0.03,0.32
										h-2.24c0.04,0.7,0.47,1.16,1.1,1.16c0.32,0,0.58-0.1,0.83-0.27l0.2,0.37c-0.29,0.19-0.65,0.34-1.1,0.34
										C168.71,259.43,168,258.78,168,257.69z M170.33,257.42c0-0.67-0.3-1.03-0.82-1.03c-0.47,0-0.88,0.38-0.95,1.03H170.33z"/>
									<path class="st13" d="M171.28,256.06l0.48-0.03h3.19v0.46h-3.67V256.06z M171.73,255.59c0-0.69,0.34-1.12,1.04-1.12
										c0.22,0,0.44,0.05,0.61,0.12l-0.12,0.43c-0.14-0.07-0.28-0.09-0.44-0.09c-0.33,0-0.52,0.24-0.52,0.68v3.75h-0.56V255.59z
										 M173.68,255.5c0-0.68,0.31-1.1,0.97-1.1c0.2,0,0.4,0.05,0.55,0.11l-0.12,0.43c-0.13-0.06-0.26-0.09-0.38-0.09
										c-0.31,0-0.47,0.22-0.47,0.65v3.85h-0.56V255.5z"/>
									<path class="st13" d="M175.48,254.98c0-0.22,0.17-0.36,0.39-0.36c0.22,0,0.39,0.14,0.39,0.36c0,0.21-0.17,0.36-0.39,0.36
										C175.65,255.34,175.48,255.19,175.48,254.98z M175.59,256.02h0.56v3.32h-0.56V256.02z"/>
									<path class="st13" d="M177.02,257.69c0-1.11,0.75-1.75,1.6-1.75c0.44,0,0.74,0.18,0.97,0.39l-0.29,0.37
										c-0.19-0.17-0.4-0.29-0.66-0.29c-0.6,0-1.04,0.52-1.04,1.28s0.42,1.27,1.03,1.27c0.3,0,0.57-0.15,0.78-0.33l0.24,0.38
										c-0.3,0.27-0.68,0.42-1.07,0.42C177.7,259.43,177.02,258.79,177.02,257.69z"/>
									<path class="st13" d="M180.28,254.98c0-0.22,0.17-0.36,0.39-0.36c0.22,0,0.39,0.14,0.39,0.36c0,0.21-0.17,0.36-0.39,0.36
										C180.45,255.34,180.28,255.19,180.28,254.98z M180.39,256.02h0.56v3.32h-0.56V256.02z"/>
									<path class="st13" d="M182.17,258.32v-1.84h-0.49v-0.43l0.52-0.03l0.07-0.93h0.47v0.93h0.9v0.46h-0.9v1.85
										c0,0.41,0.13,0.64,0.51,0.64c0.12,0,0.27-0.04,0.38-0.09l0.11,0.42c-0.19,0.06-0.41,0.12-0.62,0.12
										C182.41,259.43,182.17,258.98,182.17,258.32z"/>
									<path class="st13" d="M184.33,258.13v-2.11h0.56v2.03c0,0.62,0.19,0.88,0.63,0.88c0.34,0,0.58-0.17,0.89-0.56v-2.36h0.56
										v3.32h-0.46l-0.05-0.52h-0.02c-0.31,0.36-0.64,0.6-1.1,0.6C184.65,259.43,184.33,258.98,184.33,258.13z"/>
									<path class="st13" d="M188.1,256.02h0.46l0.05,0.61h0.02c0.23-0.42,0.57-0.69,0.94-0.69c0.15,0,0.25,0.02,0.35,0.07
										l-0.1,0.49c-0.11-0.04-0.19-0.05-0.32-0.05c-0.28,0-0.62,0.2-0.84,0.76v2.13h-0.56V256.02z"/>
									<path class="st13" d="M191.47,258.97l0.28-0.37c0.29,0.23,0.58,0.39,0.98,0.39c0.44,0,0.65-0.23,0.65-0.52
										c0-0.34-0.39-0.49-0.76-0.63c-0.47-0.17-0.99-0.4-0.99-0.96c0-0.53,0.43-0.94,1.15-0.94c0.41,0,0.78,0.17,1.03,0.37
										l-0.27,0.36c-0.23-0.17-0.46-0.3-0.76-0.3c-0.42,0-0.61,0.22-0.61,0.48c0,0.32,0.36,0.44,0.74,0.58
										c0.48,0.18,1.01,0.38,1.01,1.01c0,0.54-0.43,0.99-1.21,0.99C192.24,259.43,191.78,259.23,191.47,258.97z"/>
									<path class="st13" d="M194.46,257.69c0-1.08,0.73-1.75,1.49-1.75c0.85,0,1.33,0.61,1.33,1.56c0,0.12-0.01,0.24-0.03,0.32
										h-2.24c0.04,0.7,0.47,1.16,1.1,1.16c0.32,0,0.58-0.1,0.83-0.27l0.2,0.37c-0.29,0.19-0.65,0.34-1.1,0.34
										C195.16,259.43,194.46,258.78,194.46,257.69z M196.78,257.42c0-0.67-0.3-1.03-0.82-1.03c-0.47,0-0.88,0.38-0.95,1.03
										H196.78z"/>
									<path class="st13" d="M197.86,257.69c0-1.08,0.68-1.75,1.44-1.75c0.39,0,0.64,0.15,0.93,0.39l-0.02-0.57v-1.28h0.56v4.87
										h-0.46l-0.05-0.39h-0.02c-0.26,0.26-0.61,0.47-1.01,0.47C198.4,259.43,197.86,258.8,197.86,257.69z M200.2,258.5v-1.74
										c-0.28-0.25-0.54-0.35-0.81-0.35c-0.53,0-0.95,0.51-0.95,1.27c0,0.8,0.33,1.27,0.91,1.27
										C199.66,258.96,199.93,258.81,200.2,258.5z"/>
									<path class="st13" d="M201.77,259c0-0.26,0.18-0.43,0.41-0.43s0.41,0.18,0.41,0.43c0,0.25-0.18,0.43-0.41,0.43
										S201.77,259.25,201.77,259z"/>
									<path class="st13" d="M75.77,263.41h1.12c1.38,0,2.12,0.8,2.12,2.23c0,1.43-0.74,2.26-2.09,2.26h-1.15V263.41z
										 M76.85,267.43c1.05,0,1.57-0.66,1.57-1.79c0-1.13-0.52-1.76-1.57-1.76h-0.51v3.55H76.85z"/>
									<path class="st13" d="M79.68,266.24c0-1.11,0.73-1.75,1.54-1.75s1.54,0.64,1.54,1.75c0,1.1-0.73,1.74-1.54,1.74
										S79.68,267.34,79.68,266.24z M82.18,266.24c0-0.76-0.39-1.28-0.96-1.28s-0.96,0.52-0.96,1.28s0.39,1.27,0.96,1.27
										S82.18,267,82.18,266.24z"/>
									<path class="st13" d="M83.63,264.57h0.46l0.05,0.48h0.02c0.32-0.31,0.66-0.56,1.11-0.56c0.7,0,1.01,0.45,1.01,1.3v2.11
										h-0.56v-2.03c0-0.62-0.19-0.88-0.63-0.88c-0.34,0-0.58,0.17-0.91,0.51v2.41h-0.56V264.57z"/>
									<path class="st13" d="M87.12,266.24c0-1.08,0.73-1.75,1.49-1.75c0.85,0,1.33,0.61,1.33,1.56c0,0.12-0.01,0.24-0.03,0.32
										h-2.24c0.04,0.7,0.47,1.16,1.1,1.16c0.32,0,0.58-0.1,0.83-0.27l0.2,0.37c-0.29,0.19-0.65,0.34-1.1,0.34
										C87.83,267.98,87.12,267.33,87.12,266.24z M89.45,265.97c0-0.67-0.3-1.03-0.82-1.03c-0.47,0-0.88,0.38-0.95,1.03H89.45z"/>
									<path class="st13" d="M90.51,266.24c0-1.11,0.75-1.75,1.6-1.75c0.44,0,0.74,0.18,0.97,0.39l-0.29,0.37
										c-0.19-0.17-0.4-0.29-0.66-0.29c-0.6,0-1.04,0.52-1.04,1.28s0.42,1.27,1.03,1.27c0.3,0,0.57-0.15,0.78-0.33l0.24,0.38
										c-0.3,0.27-0.68,0.42-1.07,0.42C91.19,267.98,90.51,267.34,90.51,266.24z"/>
									<path class="st13" d="M95.25,263.02h0.56v1.33l-0.02,0.68c0.31-0.3,0.65-0.55,1.1-0.55c0.7,0,1.01,0.45,1.01,1.3v2.11
										h-0.56v-2.03c0-0.62-0.19-0.88-0.63-0.88c-0.34,0-0.58,0.17-0.91,0.51v2.41h-0.56V263.02z"/>
									<path class="st13" d="M98.72,266.24c0-1.08,0.73-1.75,1.49-1.75c0.85,0,1.33,0.61,1.33,1.56c0,0.12-0.01,0.24-0.03,0.32
										h-2.24c0.04,0.7,0.47,1.16,1.1,1.16c0.32,0,0.58-0.1,0.83-0.27l0.2,0.37c-0.29,0.19-0.65,0.34-1.1,0.34
										C99.42,267.98,98.72,267.33,98.72,266.24z M101.04,265.97c0-0.67-0.3-1.03-0.82-1.03c-0.47,0-0.88,0.38-0.95,1.03H101.04z"
										/>
									<path class="st13" d="M102.36,264.57h0.46l0.05,0.48h0.02c0.32-0.31,0.66-0.56,1.11-0.56c0.7,0,1.01,0.45,1.01,1.3v2.11
										h-0.56v-2.03c0-0.62-0.19-0.88-0.63-0.88c-0.34,0-0.58,0.17-0.91,0.51v2.41h-0.56V264.57z"/>
									<path class="st13" d="M105.86,266.24c0-1.08,0.68-1.75,1.44-1.75c0.39,0,0.64,0.15,0.93,0.39l-0.02-0.57v-1.28h0.56v4.87
										h-0.46l-0.05-0.39h-0.02c-0.26,0.26-0.61,0.47-1.01,0.47C106.4,267.98,105.86,267.34,105.86,266.24z M108.21,267.05v-1.74
										c-0.28-0.25-0.54-0.35-0.81-0.35c-0.53,0-0.95,0.51-0.95,1.27c0,0.8,0.33,1.27,0.91,1.27
										C107.66,267.5,107.93,267.35,108.21,267.05z"/>
									<path class="st13" d="M109.89,264.57h0.46l0.05,0.61h0.02c0.23-0.42,0.57-0.69,0.94-0.69c0.15,0,0.25,0.02,0.35,0.07
										l-0.1,0.49c-0.11-0.04-0.19-0.05-0.32-0.05c-0.28,0-0.62,0.2-0.84,0.76v2.13h-0.56V264.57z"/>
									<path class="st13" d="M112.02,266.24c0-1.08,0.73-1.75,1.49-1.75c0.85,0,1.33,0.61,1.33,1.56c0,0.12-0.01,0.24-0.03,0.32
										h-2.24c0.04,0.7,0.47,1.16,1.1,1.16c0.32,0,0.58-0.1,0.83-0.27l0.2,0.37c-0.29,0.19-0.65,0.34-1.1,0.34
										C112.72,267.98,112.02,267.33,112.02,266.24z M114.34,265.97c0-0.67-0.3-1.03-0.82-1.03c-0.47,0-0.88,0.38-0.95,1.03
										H114.34z"/>
									<path class="st13" d="M115.66,264.57h0.46l0.05,0.61h0.02c0.23-0.42,0.57-0.69,0.94-0.69c0.15,0,0.25,0.02,0.35,0.07
										l-0.1,0.49c-0.11-0.04-0.19-0.05-0.32-0.05c-0.28,0-0.62,0.2-0.84,0.76v2.13h-0.56V264.57z"/>
									<path class="st13" d="M117.93,263.53c0-0.22,0.17-0.36,0.39-0.36c0.22,0,0.39,0.14,0.39,0.36c0,0.21-0.17,0.36-0.39,0.36
										C118.1,263.89,117.93,263.74,117.93,263.53z M118.03,264.57h0.56v3.32h-0.56V264.57z"/>
									<path class="st13" d="M119.81,266.87v-1.84h-0.49v-0.43l0.52-0.03l0.07-0.93h0.47v0.93h0.9v0.46h-0.9v1.85
										c0,0.41,0.13,0.64,0.51,0.64c0.12,0,0.27-0.04,0.38-0.09l0.11,0.42c-0.19,0.06-0.41,0.12-0.62,0.12
										C120.05,267.98,119.81,267.53,119.81,266.87z"/>
									<path class="st13" d="M123.39,264.57h0.46l0.05,0.38h0.02c0.3-0.25,0.67-0.47,1.06-0.47c0.86,0,1.32,0.67,1.32,1.69
										c0,1.13-0.68,1.79-1.44,1.79c-0.3,0-0.62-0.14-0.92-0.38l0.02,0.58v1.12h-0.56V264.57z M125.72,266.19
										c0-0.73-0.25-1.22-0.88-1.22c-0.28,0-0.56,0.15-0.89,0.45v1.74c0.3,0.25,0.59,0.34,0.81,0.34
										C125.31,267.5,125.72,267.01,125.72,266.19z"/>
									<path class="st13" d="M126.94,266.24c0-1.11,0.73-1.75,1.54-1.75s1.54,0.64,1.54,1.75c0,1.1-0.73,1.74-1.54,1.74
										S126.94,267.34,126.94,266.24z M129.44,266.24c0-0.76-0.39-1.28-0.96-1.28s-0.96,0.52-0.96,1.28s0.39,1.27,0.96,1.27
										S129.44,267,129.44,266.24z"/>
									<path class="st13" d="M130.52,267.52l0.28-0.37c0.29,0.23,0.58,0.39,0.98,0.39c0.44,0,0.65-0.23,0.65-0.52
										c0-0.34-0.39-0.49-0.76-0.63c-0.47-0.17-0.99-0.4-0.99-0.96c0-0.53,0.43-0.94,1.15-0.94c0.41,0,0.78,0.17,1.03,0.37
										l-0.27,0.36c-0.23-0.17-0.46-0.3-0.76-0.3c-0.42,0-0.61,0.22-0.61,0.48c0,0.32,0.36,0.44,0.74,0.58
										c0.48,0.18,1.01,0.38,1.01,1.01c0,0.54-0.43,0.99-1.21,0.99C131.29,267.98,130.83,267.78,130.52,267.52z"/>
									<path class="st13" d="M133.71,266.68v-2.11h0.56v2.03c0,0.62,0.19,0.88,0.63,0.88c0.34,0,0.58-0.17,0.89-0.56v-2.36h0.56
										v3.32h-0.46l-0.05-0.52h-0.02c-0.31,0.36-0.64,0.6-1.1,0.6C134.02,267.98,133.71,267.52,133.71,266.68z"/>
									<path class="st13" d="M137.23,266.24c0-1.08,0.73-1.75,1.49-1.75c0.85,0,1.33,0.61,1.33,1.56c0,0.12-0.01,0.24-0.03,0.32
										h-2.24c0.04,0.7,0.47,1.16,1.1,1.16c0.32,0,0.58-0.1,0.83-0.27l0.2,0.37c-0.29,0.19-0.65,0.34-1.1,0.34
										C137.93,267.98,137.23,267.33,137.23,266.24z M139.55,265.97c0-0.67-0.3-1.03-0.82-1.03c-0.47,0-0.88,0.38-0.95,1.03
										H139.55z"/>
									<path class="st13" d="M140.87,264.57h0.46l0.05,0.61h0.02c0.23-0.42,0.57-0.69,0.94-0.69c0.15,0,0.25,0.02,0.35,0.07
										l-0.1,0.49c-0.11-0.04-0.19-0.05-0.32-0.05c-0.28,0-0.62,0.2-0.84,0.76v2.13h-0.56V264.57z"/>
									<path class="st13" d="M142.99,266.24c0-1.08,0.73-1.75,1.49-1.75c0.85,0,1.33,0.61,1.33,1.56c0,0.12-0.01,0.24-0.03,0.32
										h-2.24c0.04,0.7,0.47,1.16,1.1,1.16c0.32,0,0.58-0.1,0.83-0.27l0.2,0.37c-0.29,0.19-0.65,0.34-1.1,0.34
										C143.7,267.98,142.99,267.33,142.99,266.24z M145.31,265.97c0-0.67-0.3-1.03-0.82-1.03c-0.47,0-0.88,0.38-0.95,1.03H145.31
										z"/>
									<path class="st13" d="M148,264.57h0.46l0.05,0.38h0.02c0.3-0.25,0.67-0.47,1.06-0.47c0.86,0,1.32,0.67,1.32,1.69
										c0,1.13-0.68,1.79-1.44,1.79c-0.3,0-0.62-0.14-0.92-0.38l0.02,0.58v1.12H148V264.57z M150.32,266.19
										c0-0.73-0.25-1.22-0.88-1.22c-0.28,0-0.56,0.15-0.89,0.45v1.74c0.3,0.25,0.59,0.34,0.81,0.34
										C149.92,267.5,150.32,267.01,150.32,266.19z"/>
									<path class="st13" d="M151.75,266.68v-2.11h0.56v2.03c0,0.62,0.19,0.88,0.63,0.88c0.34,0,0.58-0.17,0.89-0.56v-2.36h0.56
										v3.32h-0.46l-0.05-0.52h-0.02c-0.31,0.36-0.64,0.6-1.1,0.6C152.06,267.98,151.75,267.52,151.75,266.68z"/>
									<path class="st13" d="M155.51,264.57h0.46l0.05,0.61h0.02c0.23-0.42,0.57-0.69,0.94-0.69c0.15,0,0.25,0.02,0.35,0.07
										l-0.1,0.49c-0.11-0.04-0.19-0.05-0.32-0.05c-0.28,0-0.62,0.2-0.84,0.76v2.13h-0.56V264.57z"/>
									<path class="st13" d="M157.84,266.68v-2.11h0.56v2.03c0,0.62,0.19,0.88,0.63,0.88c0.34,0,0.58-0.17,0.89-0.56v-2.36h0.56
										v3.32h-0.46l-0.05-0.52h-0.02c-0.31,0.36-0.64,0.6-1.1,0.6C158.15,267.98,157.84,267.52,157.84,266.68z"/>
									<path class="st13" d="M161.24,267.52l0.28-0.37c0.29,0.23,0.58,0.39,0.98,0.39c0.44,0,0.65-0.23,0.65-0.52
										c0-0.34-0.39-0.49-0.76-0.63c-0.47-0.17-0.99-0.4-0.99-0.96c0-0.53,0.43-0.94,1.15-0.94c0.41,0,0.78,0.17,1.03,0.37
										l-0.27,0.36c-0.23-0.17-0.46-0.3-0.76-0.3c-0.42,0-0.61,0.22-0.61,0.48c0,0.32,0.36,0.44,0.74,0.58
										c0.48,0.18,1.01,0.38,1.01,1.01c0,0.54-0.43,0.99-1.21,0.99C162,267.98,161.55,267.78,161.24,267.52z"/>
									<path class="st13" d="M164.23,268.73c0.38-0.17,0.62-0.47,0.62-0.85l-0.06-0.5l0.28,0.41c-0.08,0.09-0.18,0.12-0.28,0.12
										c-0.22,0-0.41-0.14-0.41-0.39c0-0.25,0.19-0.39,0.42-0.39c0.3,0,0.48,0.25,0.48,0.66c0,0.59-0.34,1.05-0.9,1.28
										L164.23,268.73z"/>
									<path class="st13" d="M167.17,267.52l0.28-0.37c0.29,0.23,0.58,0.39,0.98,0.39c0.44,0,0.65-0.23,0.65-0.52
										c0-0.34-0.39-0.49-0.76-0.63c-0.47-0.17-0.99-0.4-0.99-0.96c0-0.53,0.43-0.94,1.15-0.94c0.41,0,0.78,0.17,1.03,0.37
										l-0.27,0.36c-0.23-0.17-0.46-0.3-0.76-0.3c-0.42,0-0.61,0.22-0.61,0.48c0,0.32,0.36,0.44,0.74,0.58
										c0.48,0.18,1.01,0.38,1.01,1.01c0,0.54-0.43,0.99-1.21,0.99C167.94,267.98,167.48,267.78,167.17,267.52z"/>
									<path class="st13" d="M170.16,266.24c0-1.08,0.73-1.75,1.49-1.75c0.85,0,1.33,0.61,1.33,1.56c0,0.12-0.01,0.24-0.03,0.32
										h-2.24c0.04,0.7,0.47,1.16,1.1,1.16c0.32,0,0.58-0.1,0.83-0.27l0.2,0.37c-0.29,0.19-0.65,0.34-1.1,0.34
										C170.86,267.98,170.16,267.33,170.16,266.24z M172.48,265.97c0-0.67-0.3-1.03-0.82-1.03c-0.47,0-0.88,0.38-0.95,1.03
										H172.48z"/>
									<path class="st13" d="M173.56,266.24c0-1.08,0.68-1.75,1.44-1.75c0.39,0,0.64,0.15,0.93,0.39l-0.02-0.57v-1.28h0.56v4.87
										H176l-0.05-0.39h-0.02c-0.26,0.26-0.61,0.47-1.01,0.47C174.1,267.98,173.56,267.34,173.56,266.24z M175.9,267.05v-1.74
										c-0.28-0.25-0.54-0.35-0.81-0.35c-0.53,0-0.95,0.51-0.95,1.27c0,0.8,0.33,1.27,0.91,1.27
										C175.36,267.5,175.62,267.35,175.9,267.05z"/>
									<path class="st13" d="M178.59,267.52l0.28-0.37c0.29,0.23,0.58,0.39,0.98,0.39c0.44,0,0.65-0.23,0.65-0.52
										c0-0.34-0.39-0.49-0.76-0.63c-0.47-0.17-0.99-0.4-0.99-0.96c0-0.53,0.43-0.94,1.15-0.94c0.41,0,0.78,0.17,1.03,0.37
										l-0.27,0.36c-0.23-0.17-0.46-0.3-0.76-0.3c-0.42,0-0.61,0.22-0.61,0.48c0,0.32,0.36,0.44,0.74,0.58
										c0.48,0.18,1.01,0.38,1.01,1.01c0,0.54-0.43,0.99-1.21,0.99C179.36,267.98,178.9,267.78,178.59,267.52z"/>
									<path class="st13" d="M181.78,266.68v-2.11h0.56v2.03c0,0.62,0.19,0.88,0.63,0.88c0.34,0,0.58-0.17,0.89-0.56v-2.36h0.56
										v3.32h-0.46l-0.05-0.52h-0.02c-0.31,0.36-0.64,0.6-1.1,0.6C182.09,267.98,181.78,267.52,181.78,266.68z"/>
									<path class="st13" d="M185.17,267.52l0.28-0.37c0.29,0.23,0.58,0.39,0.98,0.39c0.44,0,0.65-0.23,0.65-0.52
										c0-0.34-0.39-0.49-0.76-0.63c-0.47-0.17-0.99-0.4-0.99-0.96c0-0.53,0.43-0.94,1.15-0.94c0.41,0,0.78,0.17,1.03,0.37
										l-0.27,0.36c-0.23-0.17-0.46-0.3-0.76-0.3c-0.42,0-0.61,0.22-0.61,0.48c0,0.32,0.36,0.44,0.74,0.58
										c0.48,0.18,1.01,0.38,1.01,1.01c0,0.54-0.43,0.99-1.21,0.99C185.94,267.98,185.49,267.78,185.17,267.52z"/>
									<path class="st13" d="M188.16,266.24c0-1.11,0.75-1.75,1.6-1.75c0.44,0,0.74,0.18,0.97,0.39l-0.29,0.37
										c-0.19-0.17-0.4-0.29-0.66-0.29c-0.6,0-1.04,0.52-1.04,1.28s0.42,1.27,1.03,1.27c0.3,0,0.57-0.15,0.78-0.33l0.24,0.38
										c-0.3,0.27-0.68,0.42-1.07,0.42C188.83,267.98,188.16,267.34,188.16,266.24z"/>
									<path class="st13" d="M191.42,263.53c0-0.22,0.17-0.36,0.39-0.36c0.22,0,0.39,0.14,0.39,0.36c0,0.21-0.17,0.36-0.39,0.36
										C191.59,263.89,191.42,263.74,191.42,263.53z M191.52,264.57h0.56v3.32h-0.56V264.57z"/>
									<path class="st13" d="M193.21,264.57h0.46l0.05,0.38h0.02c0.3-0.25,0.67-0.47,1.06-0.47c0.86,0,1.32,0.67,1.32,1.69
										c0,1.13-0.68,1.79-1.44,1.79c-0.3,0-0.62-0.14-0.92-0.38l0.02,0.58v1.12h-0.56V264.57z M195.53,266.19
										c0-0.73-0.25-1.22-0.88-1.22c-0.28,0-0.56,0.15-0.89,0.45v1.74c0.3,0.25,0.59,0.34,0.81,0.34
										C195.13,267.5,195.53,267.01,195.53,266.19z"/>
									<path class="st13" d="M196.9,263.53c0-0.22,0.17-0.36,0.39-0.36c0.22,0,0.39,0.14,0.39,0.36c0,0.21-0.17,0.36-0.39,0.36
										C197.07,263.89,196.9,263.74,196.9,263.53z M197,264.57h0.56v3.32H197V264.57z"/>
									<path class="st13" d="M198.78,266.87v-1.84h-0.49v-0.43l0.52-0.03l0.07-0.93h0.47v0.93h0.9v0.46h-0.9v1.85
										c0,0.41,0.13,0.64,0.51,0.64c0.12,0,0.27-0.04,0.38-0.09l0.11,0.42c-0.19,0.06-0.41,0.12-0.62,0.12
										C199.02,267.98,198.78,267.53,198.78,266.87z"/>
									<path class="st13" d="M202.36,267.23v-4.2h0.56v4.24c0,0.17,0.08,0.24,0.16,0.24c0.03,0,0.06,0,0.12-0.01l0.08,0.43
										c-0.08,0.03-0.18,0.05-0.32,0.05C202.54,267.98,202.36,267.71,202.36,267.23z"/>
									<path class="st13" d="M203.9,267.03c0-0.72,0.62-1.09,2.04-1.24c0-0.43-0.14-0.84-0.69-0.84c-0.38,0-0.73,0.18-0.99,0.36
										l-0.22-0.38c0.31-0.2,0.77-0.43,1.3-0.43c0.81,0,1.15,0.54,1.15,1.37v2.04h-0.46l-0.05-0.4h-0.02
										c-0.32,0.26-0.69,0.48-1.1,0.48C204.32,267.98,203.9,267.63,203.9,267.03z M205.94,267.08v-0.92
										c-1.11,0.13-1.49,0.41-1.49,0.83c0,0.38,0.26,0.53,0.58,0.53C205.35,267.52,205.62,267.37,205.94,267.08z"/>
									<path class="st13" d="M207.3,266.24c0-1.11,0.75-1.75,1.6-1.75c0.44,0,0.74,0.18,0.97,0.39l-0.29,0.37
										c-0.19-0.17-0.4-0.29-0.66-0.29c-0.6,0-1.04,0.52-1.04,1.28s0.42,1.27,1.03,1.27c0.3,0,0.57-0.15,0.78-0.33l0.24,0.38
										c-0.3,0.27-0.68,0.42-1.07,0.42C207.98,267.98,207.3,267.34,207.3,266.24z"/>
									<path class="st13" d="M210.62,266.68v-2.11h0.56v2.03c0,0.62,0.19,0.88,0.63,0.88c0.34,0,0.58-0.17,0.89-0.56v-2.36h0.56
										v3.32h-0.46l-0.05-0.52h-0.02c-0.31,0.36-0.64,0.6-1.1,0.6C210.94,267.98,210.62,267.52,210.62,266.68z"/>
									<path class="st13" d="M214.02,267.52l0.28-0.37c0.29,0.23,0.58,0.39,0.98,0.39c0.44,0,0.65-0.23,0.65-0.52
										c0-0.34-0.39-0.49-0.76-0.63c-0.47-0.17-0.99-0.4-0.99-0.96c0-0.53,0.43-0.94,1.15-0.94c0.41,0,0.78,0.17,1.03,0.37
										l-0.27,0.36c-0.23-0.17-0.46-0.3-0.76-0.3c-0.42,0-0.61,0.22-0.61,0.48c0,0.32,0.36,0.44,0.74,0.58
										c0.48,0.18,1.01,0.38,1.01,1.01c0,0.54-0.43,0.99-1.21,0.99C214.79,267.98,214.33,267.78,214.02,267.52z"/>
									<path class="st13" d="M218.26,264.6l0.48-0.03h1.24v0.46h-1.72V264.6z M218.71,264.05c0-0.68,0.31-1.1,0.97-1.1
										c0.2,0,0.4,0.05,0.55,0.11l-0.12,0.43c-0.13-0.06-0.26-0.09-0.38-0.09c-0.31,0-0.47,0.22-0.47,0.65v3.85h-0.56V264.05z"/>
									<path class="st13" d="M220.37,266.24c0-1.08,0.73-1.75,1.49-1.75c0.85,0,1.33,0.61,1.33,1.56c0,0.12-0.01,0.24-0.03,0.32
										h-2.24c0.04,0.7,0.47,1.16,1.1,1.16c0.32,0,0.58-0.1,0.83-0.27l0.2,0.37c-0.29,0.19-0.65,0.34-1.1,0.34
										C221.08,267.98,220.37,267.33,220.37,266.24z M222.69,265.97c0-0.67-0.3-1.03-0.82-1.03c-0.47,0-0.88,0.38-0.95,1.03
										H222.69z"/>
									<path class="st13" d="M223.96,266.68v-2.11h0.56v2.03c0,0.62,0.19,0.88,0.63,0.88c0.34,0,0.58-0.17,0.89-0.56v-2.36h0.56
										v3.32h-0.46l-0.05-0.52h-0.02c-0.31,0.36-0.64,0.6-1.1,0.6C224.28,267.98,223.96,267.52,223.96,266.68z"/>
									<path class="st13" d="M227.48,268.53c0-0.29,0.18-0.55,0.49-0.75v-0.03c-0.17-0.11-0.3-0.28-0.3-0.54
										c0-0.28,0.19-0.5,0.37-0.62v-0.03c-0.22-0.17-0.43-0.5-0.43-0.89c0-0.73,0.57-1.18,1.25-1.18c0.18,0,0.35,0.04,0.47,0.08
										h1.16V265h-0.68c0.16,0.15,0.27,0.4,0.27,0.68c0,0.71-0.54,1.15-1.22,1.15c-0.16,0-0.34-0.04-0.5-0.11
										c-0.12,0.1-0.21,0.21-0.21,0.39c0,0.21,0.14,0.36,0.58,0.36h0.65c0.77,0,1.16,0.24,1.16,0.79c0,0.62-0.65,1.15-1.68,1.15
										C228.04,269.42,227.48,269.1,227.48,268.53z M229.98,268.36c0-0.31-0.23-0.41-0.67-0.41h-0.57c-0.13,0-0.28-0.01-0.43-0.05
										c-0.24,0.17-0.34,0.37-0.34,0.56c0,0.36,0.36,0.58,0.96,0.58C229.57,269.04,229.98,268.71,229.98,268.36z M229.56,265.67
										c0-0.48-0.31-0.78-0.71-0.78s-0.71,0.29-0.71,0.78c0,0.48,0.32,0.79,0.71,0.79S229.56,266.16,229.56,265.67z"/>
									<path class="st13" d="M231.07,263.53c0-0.22,0.17-0.36,0.39-0.36c0.22,0,0.39,0.14,0.39,0.36c0,0.21-0.17,0.36-0.39,0.36
										C231.24,263.89,231.07,263.74,231.07,263.53z M231.18,264.57h0.56v3.32h-0.56V264.57z"/>
									<path class="st13" d="M232.65,267.03c0-0.72,0.62-1.09,2.04-1.24c0-0.43-0.14-0.84-0.69-0.84c-0.38,0-0.73,0.18-0.99,0.36
										l-0.22-0.38c0.31-0.2,0.77-0.43,1.3-0.43c0.81,0,1.15,0.54,1.15,1.37v2.04h-0.46l-0.05-0.4h-0.02
										c-0.32,0.26-0.69,0.48-1.1,0.48C233.07,267.98,232.65,267.63,232.65,267.03z M234.69,267.08v-0.92
										c-1.11,0.13-1.49,0.41-1.49,0.83c0,0.38,0.26,0.53,0.58,0.53C234.11,267.52,234.37,267.37,234.69,267.08z"/>
									<path class="st13" d="M236.4,266.87v-1.84h-0.49v-0.43l0.52-0.03l0.07-0.93h0.47v0.93h0.9v0.46h-0.9v1.85
										c0,0.41,0.13,0.64,0.51,0.64c0.12,0,0.27-0.04,0.38-0.09l0.11,0.42c-0.19,0.06-0.41,0.12-0.62,0.12
										C236.64,267.98,236.4,267.53,236.4,266.87z"/>
									<path class="st13" d="M239.88,263.53c0-0.22,0.17-0.36,0.39-0.36c0.22,0,0.39,0.14,0.39,0.36c0,0.21-0.17,0.36-0.39,0.36
										C240.05,263.89,239.88,263.74,239.88,263.53z M239.98,264.57h0.56v3.32h-0.56V264.57z"/>
									<path class="st13" d="M241.43,266.24c0-1.08,0.68-1.75,1.44-1.75c0.39,0,0.64,0.15,0.93,0.39l-0.02-0.57v-1.28h0.56v4.87
										h-0.46l-0.05-0.39h-0.02c-0.26,0.26-0.61,0.47-1.01,0.47C241.97,267.98,241.43,267.34,241.43,266.24z M243.77,267.05v-1.74
										c-0.28-0.25-0.54-0.35-0.81-0.35c-0.53,0-0.95,0.51-0.95,1.27c0,0.8,0.33,1.27,0.91,1.27
										C243.23,267.5,243.49,267.35,243.77,267.05z"/>
									<path class="st13" d="M245.34,267.55c0-0.26,0.18-0.43,0.41-0.43s0.41,0.18,0.41,0.43c0,0.25-0.18,0.43-0.41,0.43
										S245.34,267.8,245.34,267.55z"/>
									<path class="st13" d="M75.77,271.96h0.59l1.62,2.82l0.48,0.93h0.03c-0.03-0.45-0.07-0.96-0.07-1.43v-2.32h0.54v4.49h-0.59
										l-1.62-2.82l-0.48-0.93h-0.03c0.03,0.45,0.07,0.93,0.07,1.4v2.35h-0.54V271.96z"/>
									<path class="st13" d="M79.94,275.58c0-0.72,0.62-1.09,2.04-1.24c0-0.43-0.14-0.84-0.69-0.84c-0.38,0-0.73,0.18-0.99,0.36
										l-0.22-0.38c0.31-0.2,0.77-0.43,1.3-0.43c0.81,0,1.15,0.54,1.15,1.37v2.04h-0.46l-0.05-0.4h-0.02
										c-0.32,0.26-0.69,0.48-1.1,0.48C80.35,276.52,79.94,276.18,79.94,275.58z M81.98,275.63v-0.92
										c-1.11,0.13-1.49,0.41-1.49,0.83c0,0.38,0.26,0.53,0.58,0.53C81.39,276.07,81.66,275.91,81.98,275.63z"/>
									<path class="st13" d="M83.59,273.12h0.46l0.05,0.48h0.02c0.29-0.31,0.64-0.56,1.03-0.56c0.51,0,0.78,0.24,0.92,0.63
										c0.34-0.37,0.69-0.63,1.1-0.63c0.68,0,1.01,0.45,1.01,1.3v2.11h-0.56v-2.03c0-0.62-0.2-0.88-0.62-0.88
										c-0.26,0-0.53,0.17-0.83,0.51v2.41H85.6v-2.03c0-0.62-0.2-0.88-0.62-0.88c-0.25,0-0.53,0.17-0.83,0.51v2.41h-0.56V273.12z"
										/>
									<path class="st13" d="M90.26,276.06l0.28-0.37c0.29,0.23,0.58,0.39,0.98,0.39c0.44,0,0.65-0.23,0.65-0.52
										c0-0.34-0.39-0.49-0.76-0.63c-0.47-0.17-0.99-0.4-0.99-0.96c0-0.53,0.43-0.94,1.15-0.94c0.41,0,0.78,0.17,1.03,0.37
										l-0.27,0.36c-0.23-0.17-0.46-0.3-0.76-0.3c-0.42,0-0.61,0.22-0.61,0.48c0,0.32,0.36,0.44,0.74,0.58
										c0.48,0.18,1.01,0.38,1.01,1.01c0,0.54-0.43,0.99-1.21,0.99C91.02,276.52,90.57,276.32,90.26,276.06z"/>
									<path class="st13" d="M93.24,274.78c0-1.08,0.73-1.75,1.49-1.75c0.85,0,1.33,0.61,1.33,1.56c0,0.12-0.01,0.24-0.03,0.32
										H93.8c0.04,0.7,0.47,1.16,1.1,1.16c0.32,0,0.58-0.1,0.83-0.27l0.2,0.37c-0.29,0.19-0.65,0.34-1.1,0.34
										C93.95,276.52,93.24,275.88,93.24,274.78z M95.57,274.51c0-0.67-0.3-1.03-0.82-1.03c-0.47,0-0.88,0.38-0.95,1.03H95.57z"/>
									<path class="st13" d="M96.64,274.78c0-1.08,0.68-1.75,1.44-1.75c0.39,0,0.64,0.15,0.93,0.39l-0.02-0.57v-1.28h0.56v4.87
										h-0.46l-0.05-0.39h-0.02c-0.26,0.26-0.61,0.47-1.01,0.47C97.18,276.52,96.64,275.89,96.64,274.78z M98.99,275.6v-1.74
										c-0.28-0.25-0.54-0.35-0.81-0.35c-0.53,0-0.95,0.51-0.95,1.27c0,0.8,0.33,1.27,0.91,1.27
										C98.44,276.05,98.71,275.9,98.99,275.6z"/>
									<path class="st13" d="M102.04,273.12h0.46l0.05,0.48h0.02c0.32-0.31,0.66-0.56,1.11-0.56c0.7,0,1.01,0.45,1.01,1.3v2.11
										h-0.56v-2.03c0-0.62-0.19-0.88-0.63-0.88c-0.34,0-0.58,0.17-0.91,0.51v2.41h-0.56V273.12z"/>
									<path class="st13" d="M105.68,272.07c0-0.22,0.17-0.36,0.39-0.36c0.22,0,0.39,0.14,0.39,0.36c0,0.21-0.17,0.36-0.39,0.36
										C105.85,272.44,105.68,272.28,105.68,272.07z M105.78,273.12h0.56v3.32h-0.56V273.12z"/>
									<path class="st13" d="M107.1,276.06l0.28-0.37c0.29,0.23,0.58,0.39,0.98,0.39c0.44,0,0.65-0.23,0.65-0.52
										c0-0.34-0.39-0.49-0.76-0.63c-0.47-0.17-0.99-0.4-0.99-0.96c0-0.53,0.43-0.94,1.15-0.94c0.41,0,0.78,0.17,1.03,0.37
										l-0.27,0.36c-0.23-0.17-0.46-0.3-0.76-0.3c-0.42,0-0.61,0.22-0.61,0.48c0,0.32,0.36,0.44,0.74,0.58
										c0.48,0.18,1.01,0.38,1.01,1.01c0,0.54-0.43,0.99-1.21,0.99C107.86,276.52,107.41,276.32,107.1,276.06z"/>
									<path class="st13" d="M110.33,275.77v-4.2h0.56v4.24c0,0.17,0.08,0.24,0.16,0.24c0.03,0,0.06,0,0.12-0.01l0.08,0.43
										c-0.08,0.03-0.18,0.05-0.32,0.05C110.5,276.52,110.33,276.25,110.33,275.77z"/>
									<path class="st13" d="M113.44,273.12h0.46l0.05,0.48h0.02c0.29-0.31,0.64-0.56,1.03-0.56c0.51,0,0.78,0.24,0.92,0.63
										c0.34-0.37,0.69-0.63,1.1-0.63c0.68,0,1.01,0.45,1.01,1.3v2.11h-0.56v-2.03c0-0.62-0.2-0.88-0.62-0.88
										c-0.26,0-0.53,0.17-0.83,0.51v2.41h-0.56v-2.03c0-0.62-0.2-0.88-0.62-0.88c-0.25,0-0.53,0.17-0.83,0.51v2.41h-0.56V273.12z
										"/>
									<path class="st13" d="M118.9,275.58c0-0.72,0.62-1.09,2.04-1.24c0-0.43-0.14-0.84-0.69-0.84c-0.38,0-0.73,0.18-0.99,0.36
										l-0.22-0.38c0.31-0.2,0.77-0.43,1.3-0.43c0.81,0,1.15,0.54,1.15,1.37v2.04h-0.46l-0.05-0.4h-0.02
										c-0.32,0.26-0.69,0.48-1.1,0.48C119.32,276.52,118.9,276.18,118.9,275.58z M120.94,275.63v-0.92
										c-1.11,0.13-1.49,0.41-1.49,0.83c0,0.38,0.26,0.53,0.58,0.53C120.36,276.07,120.62,275.91,120.94,275.63z"/>
									<path class="st13" d="M122.56,275.77v-4.2h0.56v4.24c0,0.17,0.08,0.24,0.16,0.24c0.03,0,0.06,0,0.12-0.01l0.08,0.43
										c-0.08,0.03-0.18,0.05-0.32,0.05C122.73,276.52,122.56,276.25,122.56,275.77z"/>
									<path class="st13" d="M124.05,274.78c0-1.08,0.73-1.75,1.49-1.75c0.85,0,1.33,0.61,1.33,1.56c0,0.12-0.01,0.24-0.03,0.32
										h-2.24c0.04,0.7,0.47,1.16,1.1,1.16c0.32,0,0.58-0.1,0.83-0.27l0.2,0.37c-0.29,0.19-0.65,0.34-1.1,0.34
										C124.76,276.52,124.05,275.88,124.05,274.78z M126.38,274.51c0-0.67-0.3-1.03-0.82-1.03c-0.47,0-0.88,0.38-0.95,1.03
										H126.38z"/>
									<path class="st13" d="M127.32,276.06l0.28-0.37c0.29,0.23,0.58,0.39,0.98,0.39c0.44,0,0.65-0.23,0.65-0.52
										c0-0.34-0.39-0.49-0.76-0.63c-0.47-0.17-0.99-0.4-0.99-0.96c0-0.53,0.43-0.94,1.15-0.94c0.41,0,0.78,0.17,1.03,0.37
										l-0.27,0.36c-0.23-0.17-0.46-0.3-0.76-0.3c-0.42,0-0.61,0.22-0.61,0.48c0,0.32,0.36,0.44,0.74,0.58
										c0.48,0.18,1.01,0.38,1.01,1.01c0,0.54-0.43,0.99-1.21,0.99C128.09,276.52,127.63,276.32,127.32,276.06z"/>
									<path class="st13" d="M130.51,275.22v-2.11h0.56v2.03c0,0.62,0.19,0.88,0.63,0.88c0.34,0,0.58-0.17,0.89-0.56v-2.36h0.56
										v3.32h-0.46l-0.05-0.52h-0.02c-0.31,0.36-0.64,0.6-1.1,0.6C130.83,276.52,130.51,276.07,130.51,275.22z"/>
									<path class="st13" d="M134.07,275.58c0-0.72,0.62-1.09,2.04-1.24c0-0.43-0.14-0.84-0.69-0.84c-0.38,0-0.73,0.18-0.99,0.36
										l-0.22-0.38c0.31-0.2,0.77-0.43,1.3-0.43c0.81,0,1.15,0.54,1.15,1.37v2.04h-0.46l-0.05-0.4h-0.02
										c-0.32,0.26-0.69,0.48-1.1,0.48C134.49,276.52,134.07,276.18,134.07,275.58z M136.11,275.63v-0.92
										c-1.11,0.13-1.49,0.41-1.49,0.83c0,0.38,0.26,0.53,0.58,0.53C135.52,276.07,135.79,275.91,136.11,275.63z"/>
									<path class="st13" d="M137.48,274.78c0-1.08,0.68-1.75,1.44-1.75c0.39,0,0.64,0.15,0.93,0.39l-0.02-0.57v-1.28h0.56v4.87
										h-0.46l-0.05-0.39h-0.02c-0.26,0.26-0.61,0.47-1.01,0.47C138.02,276.52,137.48,275.89,137.48,274.78z M139.83,275.6v-1.74
										c-0.28-0.25-0.54-0.35-0.81-0.35c-0.53,0-0.95,0.51-0.95,1.27c0,0.8,0.33,1.27,0.91,1.27
										C139.28,276.05,139.55,275.9,139.83,275.6z"/>
									<path class="st13" d="M141.31,275.58c0-0.72,0.62-1.09,2.04-1.24c0-0.43-0.14-0.84-0.69-0.84c-0.38,0-0.73,0.18-0.99,0.36
										l-0.22-0.38c0.31-0.2,0.77-0.43,1.3-0.43c0.81,0,1.15,0.54,1.15,1.37v2.04h-0.46l-0.05-0.4h-0.02
										c-0.32,0.26-0.69,0.48-1.1,0.48C141.73,276.52,141.31,276.18,141.31,275.58z M143.35,275.63v-0.92
										c-1.11,0.13-1.49,0.41-1.49,0.83c0,0.38,0.26,0.53,0.58,0.53C142.76,276.07,143.03,275.91,143.35,275.63z"/>
									<path class="st13" d="M146.09,274.78c0-1.08,0.68-1.75,1.44-1.75c0.39,0,0.64,0.15,0.93,0.39l-0.02-0.57v-1.28H149v4.87
										h-0.46l-0.05-0.39h-0.02c-0.26,0.26-0.61,0.47-1.01,0.47C146.63,276.52,146.09,275.89,146.09,274.78z M148.44,275.6v-1.74
										c-0.28-0.25-0.54-0.35-0.81-0.35c-0.53,0-0.95,0.51-0.95,1.27c0,0.8,0.33,1.27,0.91,1.27
										C147.89,276.05,148.16,275.9,148.44,275.6z"/>
									<path class="st13" d="M150.08,275.22v-2.11h0.56v2.03c0,0.62,0.19,0.88,0.63,0.88c0.34,0,0.58-0.17,0.89-0.56v-2.36h0.56
										v3.32h-0.46l-0.05-0.52h-0.02c-0.31,0.36-0.64,0.6-1.1,0.6C150.39,276.52,150.08,276.07,150.08,275.22z"/>
									<path class="st13" d="M153.74,272.07c0-0.22,0.17-0.36,0.39-0.36c0.22,0,0.39,0.14,0.39,0.36c0,0.21-0.17,0.36-0.39,0.36
										C153.91,272.44,153.74,272.28,153.74,272.07z M153.84,273.12h0.56v3.32h-0.56V273.12z"/>
									<path class="st13" d="M156.69,275.58c0-0.72,0.62-1.09,2.04-1.24c0-0.43-0.14-0.84-0.69-0.84c-0.38,0-0.73,0.18-0.99,0.36
										l-0.22-0.38c0.31-0.2,0.77-0.43,1.3-0.43c0.81,0,1.15,0.54,1.15,1.37v2.04h-0.46l-0.05-0.4h-0.02
										c-0.32,0.26-0.69,0.48-1.1,0.48C157.11,276.52,156.69,276.18,156.69,275.58z M158.73,275.63v-0.92
										c-1.11,0.13-1.49,0.41-1.49,0.83c0,0.38,0.26,0.53,0.58,0.53C158.14,276.07,158.41,275.91,158.73,275.63z"/>
									<path class="st13" d="M160.34,275.77v-4.2h0.56v4.24c0,0.17,0.08,0.24,0.16,0.24c0.03,0,0.06,0,0.12-0.01l0.08,0.43
										c-0.08,0.03-0.18,0.05-0.32,0.05C160.51,276.52,160.34,276.25,160.34,275.77z"/>
									<path class="st13" d="M161.98,272.07c0-0.22,0.17-0.36,0.39-0.36c0.22,0,0.39,0.14,0.39,0.36c0,0.21-0.17,0.36-0.39,0.36
										C162.15,272.44,161.98,272.28,161.98,272.07z M162.08,273.12h0.56v3.32h-0.56V273.12z"/>
									<path class="st13" d="M165.87,276.66l0.02-0.6c-0.27,0.26-0.61,0.46-1,0.46c-0.83,0-1.37-0.63-1.37-1.74
										c0-1.08,0.68-1.75,1.44-1.75c0.38,0,0.65,0.14,0.95,0.4h0.02l0.05-0.32h0.45v4.73h-0.56V276.66z M165.87,275.6v-1.74
										c-0.28-0.25-0.54-0.35-0.81-0.35c-0.53,0-0.95,0.51-0.95,1.27c0,0.8,0.33,1.27,0.91,1.27
										C165.33,276.05,165.59,275.9,165.87,275.6z"/>
									<path class="st13" d="M167.51,275.22v-2.11h0.56v2.03c0,0.62,0.19,0.88,0.63,0.88c0.34,0,0.58-0.17,0.89-0.56v-2.36h0.56
										v3.32h-0.46l-0.05-0.52h-0.02c-0.31,0.36-0.64,0.6-1.1,0.6C167.83,276.52,167.51,276.07,167.51,275.22z"/>
									<path class="st13" d="M171.03,274.78c0-1.08,0.73-1.75,1.49-1.75c0.85,0,1.33,0.61,1.33,1.56c0,0.12-0.01,0.24-0.03,0.32
										h-2.24c0.04,0.7,0.47,1.16,1.1,1.16c0.32,0,0.58-0.1,0.83-0.27l0.2,0.37c-0.29,0.19-0.65,0.34-1.1,0.34
										C171.74,276.52,171.03,275.88,171.03,274.78z M173.36,274.51c0-0.67-0.3-1.03-0.82-1.03c-0.47,0-0.88,0.38-0.95,1.03
										H173.36z"/>
									<path class="st13" d="M174.77,275.41v-1.84h-0.49v-0.43l0.52-0.03l0.07-0.93h0.47v0.93h0.9v0.46h-0.9v1.85
										c0,0.41,0.13,0.64,0.51,0.64c0.12,0,0.27-0.04,0.38-0.09l0.11,0.42c-0.19,0.06-0.41,0.12-0.62,0.12
										C175.01,276.52,174.77,276.08,174.77,275.41z"/>
									<path class="st13" d="M178.1,274.78c0-1.11,0.75-1.75,1.6-1.75c0.44,0,0.74,0.18,0.97,0.39l-0.29,0.37
										c-0.19-0.17-0.4-0.29-0.66-0.29c-0.6,0-1.04,0.52-1.04,1.28s0.42,1.27,1.03,1.27c0.3,0,0.57-0.15,0.78-0.33l0.24,0.38
										c-0.3,0.27-0.68,0.42-1.07,0.42C178.78,276.52,178.1,275.88,178.1,274.78z"/>
									<path class="st13" d="M181.42,275.22v-2.11h0.56v2.03c0,0.62,0.19,0.88,0.63,0.88c0.34,0,0.58-0.17,0.89-0.56v-2.36h0.56
										v3.32h-0.46l-0.05-0.52h-0.02c-0.31,0.36-0.64,0.6-1.1,0.6C181.74,276.52,181.42,276.07,181.42,275.22z"/>
									<path class="st13" d="M185.19,273.12h0.46l0.05,0.61h0.02c0.23-0.42,0.57-0.69,0.94-0.69c0.15,0,0.25,0.02,0.35,0.07
										l-0.1,0.49c-0.11-0.04-0.19-0.05-0.32-0.05c-0.28,0-0.62,0.2-0.84,0.76v2.13h-0.56V273.12z"/>
									<path class="st13" d="M187.19,276.06l0.28-0.37c0.29,0.23,0.58,0.39,0.98,0.39c0.44,0,0.65-0.23,0.65-0.52
										c0-0.34-0.39-0.49-0.76-0.63c-0.47-0.17-0.99-0.4-0.99-0.96c0-0.53,0.43-0.94,1.15-0.94c0.41,0,0.78,0.17,1.03,0.37
										l-0.27,0.36c-0.23-0.17-0.46-0.3-0.76-0.3c-0.42,0-0.61,0.22-0.61,0.48c0,0.32,0.36,0.44,0.74,0.58
										c0.48,0.18,1.01,0.38,1.01,1.01c0,0.54-0.43,0.99-1.21,0.99C187.96,276.52,187.5,276.32,187.19,276.06z"/>
									<path class="st13" d="M190.38,275.22v-2.11h0.56v2.03c0,0.62,0.19,0.88,0.63,0.88c0.34,0,0.58-0.17,0.89-0.56v-2.36h0.56
										v3.32h-0.46l-0.05-0.52h-0.02c-0.31,0.36-0.64,0.6-1.1,0.6C190.69,276.52,190.38,276.07,190.38,275.22z"/>
									<path class="st13" d="M193.78,276.06l0.28-0.37c0.29,0.23,0.58,0.39,0.98,0.39c0.44,0,0.65-0.23,0.65-0.52
										c0-0.34-0.39-0.49-0.76-0.63c-0.47-0.17-0.99-0.4-0.99-0.96c0-0.53,0.43-0.94,1.15-0.94c0.41,0,0.78,0.17,1.03,0.37
										l-0.27,0.36c-0.23-0.17-0.46-0.3-0.76-0.3c-0.42,0-0.61,0.22-0.61,0.48c0,0.32,0.36,0.44,0.74,0.58
										c0.48,0.18,1.01,0.38,1.01,1.01c0,0.54-0.43,0.99-1.21,0.99C194.54,276.52,194.09,276.32,193.78,276.06z"/>
									<path class="st13" d="M197.9,273.12h0.58l0.63,1.89c0.1,0.33,0.21,0.66,0.31,0.98h0.03c0.1-0.32,0.21-0.66,0.31-0.98
										l0.63-1.89h0.55l-1.17,3.32h-0.65L197.9,273.12z"/>
									<path class="st13" d="M201.32,274.78c0-1.08,0.73-1.75,1.49-1.75c0.85,0,1.33,0.61,1.33,1.56c0,0.12-0.01,0.24-0.03,0.32
										h-2.24c0.04,0.7,0.47,1.16,1.1,1.16c0.32,0,0.58-0.1,0.83-0.27l0.2,0.37c-0.29,0.19-0.65,0.34-1.1,0.34
										C202.03,276.52,201.32,275.88,201.32,274.78z M203.65,274.51c0-0.67-0.3-1.03-0.82-1.03c-0.47,0-0.88,0.38-0.95,1.03
										H203.65z"/>
									<path class="st13" d="M204.96,275.77v-4.2h0.56v4.24c0,0.17,0.08,0.24,0.16,0.24c0.03,0,0.06,0,0.12-0.01l0.08,0.43
										c-0.08,0.03-0.18,0.05-0.32,0.05C205.13,276.52,204.96,276.25,204.96,275.77z"/>
									<path class="st13" d="M207.59,273.12h0.58l0.63,1.89c0.1,0.33,0.21,0.66,0.31,0.98h0.03c0.1-0.32,0.21-0.66,0.31-0.98
										l0.63-1.89h0.55l-1.17,3.32h-0.65L207.59,273.12z"/>
									<path class="st13" d="M211.16,272.07c0-0.22,0.17-0.36,0.39-0.36c0.22,0,0.39,0.14,0.39,0.36c0,0.21-0.17,0.36-0.39,0.36
										C211.33,272.44,211.16,272.28,211.16,272.07z M211.26,273.12h0.56v3.32h-0.56V273.12z"/>
									<path class="st13" d="M213.05,275.41v-1.84h-0.49v-0.43l0.52-0.03l0.07-0.93h0.47v0.93h0.9v0.46h-0.9v1.85
										c0,0.41,0.13,0.64,0.51,0.64c0.12,0,0.27-0.04,0.38-0.09l0.11,0.42c-0.19,0.06-0.41,0.12-0.62,0.12
										C213.29,276.52,213.05,276.08,213.05,275.41z"/>
									<path class="st13" d="M215.05,275.58c0-0.72,0.62-1.09,2.04-1.24c0-0.43-0.14-0.84-0.69-0.84c-0.38,0-0.73,0.18-0.99,0.36
										l-0.22-0.38c0.31-0.2,0.77-0.43,1.3-0.43c0.81,0,1.15,0.54,1.15,1.37v2.04h-0.46l-0.05-0.4h-0.02
										c-0.32,0.26-0.69,0.48-1.1,0.48C215.47,276.52,215.05,276.18,215.05,275.58z M217.09,275.63v-0.92
										c-1.11,0.13-1.49,0.41-1.49,0.83c0,0.38,0.26,0.53,0.58,0.53C216.51,276.07,216.77,275.91,217.09,275.63z"/>
									<path class="st13" d="M218.46,274.78c0-1.08,0.73-1.75,1.49-1.75c0.85,0,1.33,0.61,1.33,1.56c0,0.12-0.01,0.24-0.03,0.32
										h-2.24c0.04,0.7,0.47,1.16,1.1,1.16c0.32,0,0.58-0.1,0.83-0.27l0.2,0.37c-0.29,0.19-0.65,0.34-1.1,0.34
										C219.16,276.52,218.46,275.88,218.46,274.78z M220.78,274.51c0-0.67-0.3-1.03-0.82-1.03c-0.47,0-0.88,0.38-0.95,1.03
										H220.78z"/>
									<path class="st13" d="M223.22,274.78c0-1.11,0.73-1.75,1.54-1.75s1.54,0.64,1.54,1.75c0,1.1-0.73,1.74-1.54,1.74
										S223.22,275.88,223.22,274.78z M225.71,274.78c0-0.76-0.39-1.28-0.96-1.28s-0.96,0.52-0.96,1.28s0.39,1.27,0.96,1.27
										S225.71,275.55,225.71,274.78z"/>
									<path class="st13" d="M227.17,273.12h0.46l0.05,0.61h0.02c0.23-0.42,0.57-0.69,0.94-0.69c0.15,0,0.25,0.02,0.35,0.07
										l-0.1,0.49c-0.11-0.04-0.19-0.05-0.32-0.05c-0.28,0-0.62,0.2-0.84,0.76v2.13h-0.56V273.12z"/>
									<path class="st13" d="M229.29,274.78c0-1.11,0.75-1.75,1.6-1.75c0.44,0,0.74,0.18,0.97,0.39l-0.29,0.37
										c-0.19-0.17-0.4-0.29-0.66-0.29c-0.6,0-1.04,0.52-1.04,1.28s0.42,1.27,1.03,1.27c0.3,0,0.57-0.15,0.78-0.33l0.24,0.38
										c-0.3,0.27-0.68,0.42-1.07,0.42C229.97,276.52,229.29,275.88,229.29,274.78z"/>
									<path class="st13" d="M232.56,272.07c0-0.22,0.17-0.36,0.39-0.36c0.22,0,0.39,0.14,0.39,0.36c0,0.21-0.17,0.36-0.39,0.36
										C232.73,272.44,232.56,272.28,232.56,272.07z M232.66,273.12h0.56v3.32h-0.56V273.12z"/>
									<path class="st13" d="M234.22,276.1c0-0.26,0.18-0.43,0.41-0.43s0.41,0.18,0.41,0.43c0,0.25-0.18,0.43-0.41,0.43
										S234.22,276.35,234.22,276.1z"/>
								</g>
							</g>
							<g>
								<path class="st14" d="M109.08,315.21H81.02c-3.17,0-5.75-2.57-5.75-5.75l0,0c0-3.17,2.57-5.75,5.75-5.75h28.06
									c3.17,0,5.75,2.57,5.75,5.75l0,0C114.83,312.64,112.26,315.21,109.08,315.21z"/>
								<path class="st15" d="M108.11,312.94H80.05c-3.17,0-5.75-2.57-5.75-5.75v0c0-3.17,2.57-5.75,5.75-5.75h28.06
									c3.17,0,5.75,2.57,5.75,5.75v0C113.86,310.37,111.28,312.94,108.11,312.94z"/>
								<g>
									<g>
										<path class="st13" d="M86.43,304.62h0.73l-0.77,3.83h1.78l-0.12,0.62h-2.52L86.43,304.62z"/>
										<path class="st13" d="M88.83,307.79c0-1.28,0.92-2.15,1.84-2.15c0.75,0,1.25,0.53,1.25,1.36c0,1.28-0.92,2.15-1.84,2.15
											C89.32,309.15,88.83,308.62,88.83,307.79z M91.18,307.03c0-0.5-0.21-0.79-0.59-0.79c-0.53,0-1.02,0.67-1.02,1.53
											c0,0.5,0.2,0.79,0.59,0.79C90.68,308.56,91.18,307.89,91.18,307.03z"/>
										<path class="st13" d="M92.97,305.73h0.6l-0.06,0.65h0.03c0.26-0.41,0.63-0.73,1.03-0.73c0.15,0,0.25,0.02,0.33,0.06
											l-0.25,0.64c-0.08-0.04-0.2-0.05-0.31-0.05c-0.31,0-0.63,0.25-0.91,0.76l-0.39,2.02h-0.73L92.97,305.73z"/>
										<path class="st13" d="M96.68,305.65c0.78,0,1.06,0.54,1.06,1.23c0,0.29-0.1,0.6-0.15,0.71h-2.03c-0.07,0.71,0.32,1,0.83,1
											c0.23,0,0.49-0.12,0.68-0.26l0.27,0.47c-0.27,0.19-0.66,0.35-1.14,0.35c-0.8,0-1.34-0.52-1.34-1.42
											C94.85,306.49,95.8,305.65,96.68,305.65z M97.1,307.12c0.02-0.09,0.03-0.19,0.03-0.29c0-0.32-0.14-0.62-0.54-0.62
											c-0.4,0-0.8,0.34-0.96,0.91H97.1z"/>
										<path class="st13" d="M98.76,305.73h0.6l-0.03,0.47h0.03c0.33-0.3,0.73-0.56,1.09-0.56c0.51,0,0.7,0.26,0.77,0.62
											c0.4-0.38,0.79-0.62,1.16-0.62c0.55,0,0.79,0.31,0.79,0.85c0,0.16-0.02,0.29-0.05,0.47l-0.42,2.11h-0.73l0.41-2.02
											c0.03-0.15,0.05-0.25,0.05-0.35c0-0.28-0.14-0.43-0.41-0.43c-0.17,0-0.46,0.16-0.79,0.52l-0.46,2.28h-0.73l0.41-2.02
											c0.03-0.15,0.05-0.25,0.05-0.35c0-0.28-0.14-0.43-0.4-0.43c-0.18,0-0.46,0.16-0.8,0.52l-0.45,2.28H98.1L98.76,305.73z"/>
									</g>
								</g>
							</g>
							<g>
								<path class="st14" d="M153.17,315.21h-28.06c-3.17,0-5.75-2.57-5.75-5.75l0,0c0-3.17,2.57-5.75,5.75-5.75h28.06
									c3.17,0,5.75,2.57,5.75,5.75l0,0C158.92,312.64,156.35,315.21,153.17,315.21z"/>
								
									<linearGradient id="SVGID_00000072967821084527888880000017227442309511244187_" gradientUnits="userSpaceOnUse" x1="113.2076" y1="307.1988" x2="161.6209" y2="307.1988">
									<stop  offset="0" style="stop-color:#FBB46F"/>
									<stop  offset="0.2439" style="stop-color:#F15E58"/>
									<stop  offset="0.7035" style="stop-color:#EC3573"/>
									<stop  offset="1" style="stop-color:#7A4A9D"/>
								</linearGradient>
								<path style="fill:url(#SVGID_00000072967821084527888880000017227442309511244187_);" d="M152.2,312.94h-28.06
									c-3.17,0-5.75-2.57-5.75-5.75v0c0-3.17,2.57-5.75,5.75-5.75h28.06c3.17,0,5.75,2.57,5.75,5.75v0
									C157.95,310.37,155.37,312.94,152.2,312.94z"/>
								<g>
									<g>
										<path class="st11" d="M130.49,304.62h0.73l-0.89,4.45h-0.74L130.49,304.62z"/>
										<path class="st11" d="M132.04,309.4l-0.19,1h-0.73l0.94-4.67h0.6l-0.02,0.41h0.02c0.32-0.28,0.71-0.49,1.09-0.49
											c0.59,0,0.95,0.44,0.95,1.22c0,1.28-0.87,2.29-1.79,2.29c-0.31,0-0.58-0.17-0.74-0.44h-0.01L132.04,309.4z M132.59,306.73
											l-0.29,1.42c0.14,0.28,0.34,0.4,0.55,0.4c0.56,0,1.08-0.73,1.08-1.59c0-0.49-0.19-0.72-0.5-0.72
											C133.19,306.25,132.84,306.41,132.59,306.73z"/>
										<path class="st11" d="M134.89,308.51l0.44-0.35c0.22,0.29,0.49,0.45,0.79,0.45c0.31,0,0.58-0.19,0.58-0.43
											c0-0.21-0.17-0.33-0.59-0.56c-0.44-0.25-0.72-0.52-0.72-0.92c0-0.61,0.55-1.05,1.22-1.05c0.44,0,0.78,0.21,1.04,0.48
											l-0.41,0.39c-0.17-0.17-0.38-0.32-0.64-0.32c-0.31,0-0.53,0.19-0.53,0.42c0,0.25,0.29,0.37,0.57,0.53
											c0.5,0.27,0.74,0.53,0.74,0.94c0,0.64-0.56,1.07-1.32,1.07C135.64,309.15,135.15,308.9,134.89,308.51z"/>
										<path class="st11" d="M140.57,309.07h-0.6l0.03-0.48h-0.03c-0.33,0.31-0.72,0.56-1.12,0.56c-0.56,0-0.79-0.31-0.79-0.85
											c0-0.16,0.02-0.29,0.05-0.47l0.42-2.11h0.73l-0.41,2.02c-0.03,0.16-0.05,0.25-0.05,0.35c0,0.28,0.14,0.43,0.42,0.43
											c0.23,0,0.49-0.16,0.83-0.52l0.45-2.28h0.73L140.57,309.07z"/>
										<path class="st11" d="M142.21,305.73h0.6l-0.03,0.47h0.03c0.33-0.3,0.73-0.56,1.09-0.56c0.51,0,0.7,0.26,0.77,0.62
											c0.4-0.38,0.79-0.62,1.16-0.62c0.55,0,0.79,0.31,0.79,0.85c0,0.16-0.02,0.29-0.05,0.47l-0.42,2.11h-0.73l0.41-2.02
											c0.03-0.15,0.05-0.25,0.05-0.35c0-0.28-0.14-0.43-0.41-0.43c-0.17,0-0.46,0.16-0.79,0.52l-0.46,2.28h-0.73l0.41-2.02
											c0.03-0.15,0.05-0.25,0.05-0.35c0-0.28-0.14-0.43-0.4-0.43c-0.18,0-0.46,0.16-0.8,0.52l-0.45,2.28h-0.73L142.21,305.73z"
											/>
									</g>
								</g>
							</g>
							<rect x="76.87" y="290.17" class="st13" width="155.56" height="0.27"/>
						</g>
					</g>
					<g>
						<g>
							
								<linearGradient id="SVGID_00000113311005050837994570000014511189839721445025_" gradientUnits="userSpaceOnUse" x1="76.4525" y1="164.309" x2="91.3719" y2="155.4995">
								<stop  offset="0" style="stop-color:#FBB46F"/>
								<stop  offset="0.2439" style="stop-color:#F15E58"/>
								<stop  offset="0.7035" style="stop-color:#EC3573"/>
								<stop  offset="1" style="stop-color:#7A4A9D"/>
							</linearGradient>
							<circle style="fill:url(#SVGID_00000113311005050837994570000014511189839721445025_);" cx="83.91" cy="159.9" r="8.66"/>
							<g>
								<g>
									<path class="st11" d="M81.18,163.23v-3.9c0.5-0.18,0.86-0.65,0.86-1.22c0-0.72-0.58-1.3-1.3-1.3c-0.72,0-1.3,0.58-1.3,1.3
										c0,0.56,0.36,1.04,0.86,1.22v3.9c-0.5,0.18-0.86,0.65-0.86,1.22c0,0.72,0.58,1.3,1.3,1.3c0.72,0,1.3-0.58,1.3-1.3
										C82.04,163.88,81.68,163.41,81.18,163.23z"/>
								</g>
								<g>
									<path class="st11" d="M84.34,159.89v-3.9c0.5-0.18,0.86-0.65,0.86-1.22c0-0.72-0.58-1.3-1.3-1.3s-1.3,0.58-1.3,1.3
										c0,0.56,0.36,1.04,0.86,1.22v3.9c-0.5,0.18-0.86,0.65-0.86,1.22c0,0.72,0.58,1.3,1.3,1.3s1.3-0.58,1.3-1.3
										C85.21,160.55,84.85,160.07,84.34,159.89z"/>
								</g>
								<g>
									<path class="st11" d="M87.51,163.23v-3.9c0.5-0.18,0.86-0.65,0.86-1.22c0-0.72-0.58-1.3-1.3-1.3c-0.72,0-1.3,0.58-1.3,1.3
										c0,0.56,0.36,1.04,0.86,1.22v3.9c-0.5,0.18-0.86,0.65-0.86,1.22c0,0.72,0.58,1.3,1.3,1.3c0.72,0,1.3-0.58,1.3-1.3
										C88.37,163.88,88.01,163.41,87.51,163.23z"/>
								</g>
							</g>
						</g>
						<g>
							<g>
								<path class="st18" d="M95.29,161.17v-2.61h-0.78v-0.96l0.85-0.06l0.15-1.5h1.07v1.5h1.4v1.02h-1.4v2.61
									c0,0.65,0.25,0.96,0.78,0.96c0.19,0,0.41-0.06,0.57-0.12l0.22,0.95c-0.3,0.1-0.68,0.2-1.12,0.2
									C95.76,163.16,95.29,162.36,95.29,161.17z"/>
								<path class="st18" d="M98.56,160.28c0-1.78,1.24-2.88,2.53-2.88c1.48,0,2.27,1.07,2.27,2.6c0,0.25-0.03,0.49-0.06,0.63
									h-3.48c0.11,0.97,0.73,1.53,1.62,1.53c0.47,0,0.87-0.15,1.27-0.4l0.44,0.8c-0.52,0.35-1.18,0.59-1.88,0.59
									C99.75,163.16,98.56,162.09,98.56,160.28z M102.24,159.76c0-0.84-0.38-1.36-1.12-1.36c-0.64,0-1.2,0.48-1.31,1.36H102.24z"
									/>
								<path class="st18" d="M104.01,160.28c0-1.83,1.29-2.88,2.75-2.88c0.7,0,1.21,0.27,1.6,0.62l-0.62,0.84
									c-0.29-0.25-0.57-0.4-0.91-0.4c-0.88,0-1.5,0.73-1.5,1.83s0.6,1.82,1.46,1.82c0.43,0,0.82-0.21,1.13-0.47l0.52,0.85
									c-0.51,0.46-1.17,0.67-1.79,0.67C105.16,163.16,104.01,162.1,104.01,160.28z"/>
								<path class="st18" d="M109.32,155.13h1.29v2.04l-0.05,1.06c0.46-0.43,1-0.83,1.76-0.83c1.17,0,1.69,0.8,1.69,2.18v3.44
									h-1.29v-3.27c0-0.9-0.26-1.24-0.85-1.24c-0.48,0-0.8,0.24-1.25,0.68v3.83h-1.29V155.13z"/>
							</g>
						</g>
					</g>
				</g>
				<g class="st10">
					<g>
						<g>
							<g>
								<rect x="331.02" y="178.5" class="st19" width="3.65" height="3.65"/>
								<path class="st19" d="M328.45,206.5L328.45,206.5c-1.01,0-1.82-0.82-1.82-1.82l0,0c0-1.01,0.82-1.82,1.82-1.82l0,0
									c1.01,0,1.82,0.82,1.82,1.82l0,0C330.28,205.68,329.46,206.5,328.45,206.5z"/>
								<polygon class="st19" points="316.28,215.42 314.25,219.58 312.22,215.42 								"/>
								<rect x="338.21" y="217.86" class="st19" width="3.65" height="3.65"/>
								<g>
									<line class="st20" x1="317.07" y1="231.53" x2="320.72" y2="231.53"/>
									<line class="st20" x1="318.89" y1="229.71" x2="318.89" y2="233.36"/>
								</g>
								<rect x="331.09" y="232.93" class="st19" width="3.65" height="3.65"/>
								<path class="st19" d="M338.51,252.28L338.51,252.28c-1.01,0-1.82-0.82-1.82-1.82l0,0c0-1.01,0.82-1.82,1.82-1.82l0,0
									c1.01,0,1.82,0.82,1.82,1.82l0,0C340.34,251.46,339.52,252.28,338.51,252.28z"/>
								<path class="st19" d="M305.43,200.07L305.43,200.07c-1.01,0-1.82-0.82-1.82-1.82l0,0c0-1.01,0.82-1.82,1.82-1.82l0,0
									c1.01,0,1.82,0.82,1.82,1.82l0,0C307.25,199.26,306.43,200.07,305.43,200.07z"/>
								<circle class="st11" cx="338.75" cy="208" r="0.5"/>
								<circle class="st11" cx="343.88" cy="176.12" r="0.5"/>
								<circle class="st11" cx="325.25" cy="243" r="0.5"/>
								<circle class="st11" cx="316" cy="254.62" r="0.5"/>
								<circle class="st11" cx="334.88" cy="194" r="0.5"/>
								<circle class="st11" cx="313.25" cy="182.25" r="0.5"/>
								<circle class="st11" cx="328.25" cy="219" r="0.5"/>
								<circle class="st11" cx="300.33" cy="215.38" r="0.5"/>
								<circle class="st11" cx="343.12" cy="230.12" r="0.5"/>
								<circle class="st11" cx="341.25" cy="266.75" r="0.5"/>
							</g>
							<g>
								<path class="st19" d="M416.37,225.02L416.37,225.02c-1.01,0-1.82-0.82-1.82-1.82l0,0c0-1.01,0.82-1.82,1.82-1.82l0,0
									c1.01,0,1.82,0.82,1.82,1.82l0,0C418.19,224.2,417.37,225.02,416.37,225.02z"/>
								<polygon class="st19" points="442.4,227.66 440.37,231.81 438.35,227.66 								"/>
								<rect x="426.12" y="236.38" class="st19" width="3.65" height="3.65"/>
								<g>
									<line class="st20" x1="439.33" y1="211.34" x2="435.68" y2="211.34"/>
									<line class="st20" x1="437.51" y1="213.17" x2="437.51" y2="209.52"/>
								</g>
								
									<rect x="421.66" y="206.3" transform="matrix(-1 -1.224647e-16 1.224647e-16 -1 846.9728 416.2409)" class="st19" width="3.65" height="3.65"/>
								<path class="st19" d="M417.89,190.6L417.89,190.6c1.01,0,1.82,0.82,1.82,1.82l0,0c0,1.01-0.82,1.82-1.82,1.82l0,0
									c-1.01,0-1.82-0.82-1.82-1.82l0,0C416.06,191.42,416.88,190.6,417.89,190.6z"/>
								<circle class="st11" cx="417.65" cy="234.88" r="0.5"/>
								<circle class="st11" cx="412.52" cy="266.75" r="0.5"/>
								<circle class="st11" cx="431.15" cy="199.88" r="0.5"/>
								<circle class="st11" cx="440.4" cy="188.25" r="0.5"/>
								<circle class="st11" cx="421.52" cy="248.88" r="0.5"/>
								<circle class="st11" cx="440.07" cy="256.04" r="0.5"/>
								<circle class="st11" cx="428.15" cy="223.88" r="0.5"/>
								<circle class="st11" cx="413.27" cy="212.75" r="0.5"/>
								<circle class="st11" cx="412.75" cy="182.25" r="0.5"/>
								<g>
									<line class="st20" x1="412.64" y1="249.84" x2="408.99" y2="249.84"/>
									<line class="st20" x1="410.81" y1="251.67" x2="410.81" y2="248.02"/>
								</g>
							</g>
						</g>
						<g>
							<g>
								<path class="st11" d="M347.61,197.43l-3.27-3.27v-4.18c0-2.2-1.78-3.98-3.98-3.98h-22.05c-2.2,0-3.98,1.78-3.98,3.98v17.09
									c0,2.2,1.78,3.98,3.98,3.98h22.05c2.2,0,3.98-1.78,3.98-3.98v-4.18l3.27-3.27C348.22,199.02,348.22,198.03,347.61,197.43z"
									/>
								
									<linearGradient id="SVGID_00000112612181098229207880000001663917878077465260_" gradientUnits="userSpaceOnUse" x1="318.7921" y1="201.81" x2="360.1591" y2="189.869">
									<stop  offset="0" style="stop-color:#FBB46F"/>
									<stop  offset="0.2439" style="stop-color:#F15E58"/>
									<stop  offset="0.7035" style="stop-color:#EC3573"/>
									<stop  offset="1" style="stop-color:#7A4A9D"/>
								</linearGradient>
								<path style="fill:url(#SVGID_00000112612181098229207880000001663917878077465260_);" d="M334.74,196.77
									c-0.55-2.25-2.54-2.15-2.54-2.15c-1.7-0.01-2.89,1.83-2.91,1.86c-0.02-0.03-1.21-1.88-2.91-1.86c0,0-1.99-0.1-2.54,2.15
									c0,0-0.98,3.01,5.44,7.1v0c0,0,0,0,0,0c0,0,0,0,0,0l0,0C335.71,199.78,334.74,196.77,334.74,196.77z"/>
							</g>
							<g>
								<g>
									<path class="st11" d="M409.55,229.33l3.27-3.27v-4.18c0-2.2,1.78-3.98,3.98-3.98h22.05c2.2,0,3.98,1.78,3.98,3.98v17.09
										c0,2.2-1.78,3.98-3.98,3.98h-22.05c-2.2,0-3.98-1.78-3.98-3.98v-4.18l-3.27-3.27
										C408.94,230.92,408.94,229.93,409.55,229.33z"/>
								</g>
								<g>
									<g>
										
											<linearGradient id="SVGID_00000116207031899262793100000018439091199643533454_" gradientUnits="userSpaceOnUse" x1="411.0395" y1="234.8348" x2="438.3335" y2="227.8413">
											<stop  offset="0" style="stop-color:#FBB46F"/>
											<stop  offset="0.2439" style="stop-color:#F15E58"/>
											<stop  offset="0.7035" style="stop-color:#EC3573"/>
											<stop  offset="1" style="stop-color:#7A4A9D"/>
										</linearGradient>
										<path style="fill:url(#SVGID_00000116207031899262793100000018439091199643533454_);" d="M434.38,230.43
											c0,3.38-2.74,6.12-6.12,6.12s-6.12-2.74-6.12-6.12c0-3.38,2.74-6.12,6.12-6.12S434.38,227.04,434.38,230.43z"/>
									</g>
									<g>
										<path class="st23" d="M431,231.72c0,1.25-1.23,2.27-2.75,2.27s-2.75-1.01-2.75-2.27"/>
										<g>
											<path class="st11" d="M426.27,229.15c0,0.45-0.36,0.81-0.81,0.81s-0.81-0.36-0.81-0.81c0-0.45,0.36-0.81,0.81-0.81
												S426.27,228.7,426.27,229.15z"/>
											<path class="st11" d="M431.85,229.15c0,0.45-0.36,0.81-0.81,0.81s-0.81-0.36-0.81-0.81c0-0.45,0.36-0.81,0.81-0.81
												S431.85,228.7,431.85,229.15z"/>
										</g>
									</g>
								</g>
							</g>
						</g>
					</g>
					<g>
						<g>
							<g>
								<g>
									<g>
										
											<linearGradient id="SVGID_00000151534803190466991500000017274065787290540210_" gradientUnits="userSpaceOnUse" x1="378.4909" y1="249.9753" x2="378.4909" y2="298.1251">
											<stop  offset="0" style="stop-color:#000000"/>
											<stop  offset="1" style="stop-color:#040306;stop-opacity:0"/>
										</linearGradient>
										<path style="fill:url(#SVGID_00000151534803190466991500000017274065787290540210_);" d="M411.93,331.77h-66.88
											c-4.34,0-7.11-2.53-6.22-5.53l17.15-57.76c0.28-0.93,2.37-1.67,4.69-1.67h35.65c2.31,0,4.41,0.74,4.69,1.67l17.15,57.76
											C419.04,329.24,416.27,331.77,411.93,331.77z"/>
									</g>
								</g>
								<g>
									<g>
										<g>
											<path d="M400.98,284.75H356c-2.92,0-5.29-2.37-5.29-5.29V178.07c0-2.92,2.37-5.29,5.29-5.29h44.98
												c2.92,0,5.29,2.37,5.29,5.29v101.39C406.27,282.38,403.9,284.75,400.98,284.75z"/>
										</g>
										
											<linearGradient id="SVGID_00000118366651132742092850000015032715097687872391_" gradientUnits="userSpaceOnUse" x1="332.5304" y1="276.8979" x2="403.0432" y2="202.3965">
											<stop  offset="0" style="stop-color:#FBB46F"/>
											<stop  offset="0.2439" style="stop-color:#F15E58"/>
											<stop  offset="0.7035" style="stop-color:#EC3573"/>
											<stop  offset="1" style="stop-color:#7A4A9D"/>
										</linearGradient>
										<path style="fill:url(#SVGID_00000118366651132742092850000015032715097687872391_);" d="M399.78,281.33H357.2
											c-2.76,0-5-2.24-5-5v-95.98c0-2.76,2.24-5,5-5h42.58c2.76,0,5,2.24,5,5v95.98C404.78,279.09,402.54,281.33,399.78,281.33z
											"/>
										<g class="st26">
											<path class="st11" d="M357.66,280.33c-2.46,0-4.46-2-4.46-4.46v-95.06c0-2.46,2-4.46,4.46-4.46h41.66
												c2.46,0,4.46,2,4.46,4.46v95.06c0,2.46-2,4.46-4.46,4.46H357.66z"/>
										</g>
										<g>
											<path d="M386.78,179.33H370.2c-3.62,0-6.55-2.93-6.55-6.55l0,0h29.69l0,0C393.33,176.4,390.4,179.33,386.78,179.33z"/>
										</g>
										
											<linearGradient id="SVGID_00000056396152148412015050000008966463558761485214_" gradientUnits="userSpaceOnUse" x1="377.6362" y1="176.6282" x2="379.3456" y2="176.6282">
											<stop  offset="0" style="stop-color:#FFFFFF"/>
											<stop  offset="1" style="stop-color:#E7E7EA"/>
										</linearGradient>
										
											<circle style="fill:url(#SVGID_00000056396152148412015050000008966463558761485214_);" cx="378.49" cy="176.63" r="0.85"/>
									</g>
								</g>
							</g>
							<g class="st28">
								<g>
									<path class="st11" d="M404.78,193.88l-52.59,63.89v18.56c0,0.03,0.01,0.05,0.01,0.07l52.58-63.88V193.88z"/>
								</g>
								<g>
									<path class="st11" d="M352.2,250.6l52.59-63.89v-6.36c0-1.17-0.42-2.23-1.09-3.08l-51.5,62.57V250.6z"/>
								</g>
							</g>
						</g>
						<g>
							
								<linearGradient id="SVGID_00000011027838653138603590000008665555020624689591_" gradientUnits="userSpaceOnUse" x1="367.1424" y1="235.3536" x2="390.8577" y2="210.2968">
								<stop  offset="0" style="stop-color:#FBB46F"/>
								<stop  offset="0.2439" style="stop-color:#F15E58"/>
								<stop  offset="0.7035" style="stop-color:#EC3573"/>
								<stop  offset="1" style="stop-color:#7A4A9D"/>
							</linearGradient>
							
								<circle style="opacity:0.6;fill:url(#SVGID_00000011027838653138603590000008665555020624689591_);stroke:#FFFFFF;stroke-miterlimit:10;" cx="379" cy="222.83" r="17.25"/>
							<g>
								<defs>
									<circle id="SVGID_00000068645342634512050460000017886242410054855610_" cx="379" cy="222.83" r="17.25"/>
								</defs>
								<clipPath id="SVGID_00000007387650187742808500000016970220408766939571_">
									<use xlink:href="#SVGID_00000068645342634512050460000017886242410054855610_"  style="overflow:visible;"/>
								</clipPath>
								<g style="clip-path:url(#SVGID_00000007387650187742808500000016970220408766939571_);">
									<path class="st11" d="M386.12,218.89c0,3.93-3.19,7.12-7.12,7.12s-7.12-3.19-7.12-7.12s3.19-7.12,7.12-7.12
										S386.12,214.96,386.12,218.89z"/>
									<ellipse class="st11" cx="379" cy="236.39" rx="10.63" ry="11.89"/>
								</g>
							</g>
						</g>
					</g>
				</g>
			</g>
		</g>
	</g>
</g>
<g id="DESIGNED_BY_FREEPIK" class="st0">
	<g class="st10">
		<g id="XMLID_319_">
			<g id="XMLID_338_">
				<path id="XMLID_346_" class="st31" d="M260.1,465.46c-0.43,0.44-0.8,0.93-1.11,1.45l-0.46-0.24c-0.07-0.3-0.35-0.5-0.66-0.47
					c-0.33,0.04-0.57,0.34-0.53,0.67c0.04,0.33,0.34,0.57,0.67,0.53c0.07-0.01,0.13-0.03,0.18-0.05l0.45,0.23
					c-0.25,0.55-0.43,1.14-0.54,1.74l0.75,0.13c0.23-1.31,0.85-2.51,1.79-3.47L260.1,465.46z"/>
				<path id="XMLID_345_" class="st31" d="M265.59,463.16c-0.17,0-0.34,0.01-0.51,0.02l-0.07-0.63c0.19-0.15,0.3-0.39,0.27-0.64
					c-0.05-0.39-0.4-0.67-0.8-0.63c-0.39,0.05-0.67,0.4-0.63,0.8c0.03,0.25,0.19,0.46,0.4,0.56l0.07,0.62
					c-0.71,0.12-1.4,0.33-2.06,0.65l0.33,0.68c0.93-0.45,1.94-0.67,3-0.67c0.5,0,0.99,0.05,1.48,0.16l0.16-0.74
					C266.69,463.22,266.14,463.16,265.59,463.16z"/>
				<path id="XMLID_344_" class="st31" d="M272.19,465.71c0.33-0.04,0.57-0.34,0.53-0.67c-0.04-0.33-0.34-0.57-0.67-0.53
					c-0.31,0.04-0.54,0.3-0.53,0.61l-0.42,0.36c-0.42-0.43-0.89-0.81-1.41-1.14l-0.4,0.64c1.13,0.71,2.02,1.73,2.56,2.92l0.69-0.31
					c-0.25-0.55-0.57-1.07-0.94-1.54l0.4-0.35C272.07,465.71,272.13,465.72,272.19,465.71z"/>
				<path id="XMLID_343_" class="st31" d="M265.05,473.37c-0.39,0.02-0.78,0.04-1.16,0.04c-0.88,0-1.73-0.06-2.48-0.18
					c-0.39-0.06-0.85-0.15-1.27-0.29c1.05,1.86,3.07,3.12,5.39,3.12c2.86,0,5.26-1.92,5.95-4.5c-0.68,0.45-1.5,0.83-2.46,1.12
					C267.84,473.05,266.46,473.29,265.05,473.37z"/>
				<path id="XMLID_339_" class="st31" d="M265.59,464.68c-3.35,0-6.08,2.67-6.08,5.94c0,0.42,0.05,0.85,0.14,1.26
					c0.67,0.48,2.71,0.89,5.35,0.73c2.88-0.17,5.3-0.96,6.67-2.16c0-0.19-0.02-0.39-0.04-0.58
					C271.24,466.91,268.65,464.68,265.59,464.68z M263.43,471.19c-1.02,0-1.85-0.83-1.85-1.85c0-1.02,0.83-1.85,1.85-1.85
					c1.02,0,1.85,0.83,1.85,1.85C265.28,470.36,264.45,471.19,263.43,471.19z M268.17,470.29c-0.75,0-1.36-0.61-1.36-1.36
					s0.61-1.36,1.36-1.36s1.36,0.61,1.36,1.36S268.92,470.29,268.17,470.29z"/>
			</g>
			<path id="XMLID_336_" class="st31" d="M281.6,466.55c-0.29-0.12-0.81-0.31-1.38-0.24c-0.55,0.07-0.84,0.34-0.84,1.01v0.87h2.23
				v1.72h-2.23v5.45h-1.93v-5.45h-1.34v-1.72h1.34v-0.89c0-1.68,0.9-2.78,2.57-2.78c0.64,0,1.16,0.12,1.59,0.31V466.55z"/>
			<path id="XMLID_334_" class="st31" d="M286.3,469.88c-0.18-0.03-0.36-0.05-0.53-0.05c-0.9,0-1.51,0.55-1.51,1.61v3.91h-1.93
				v-7.17h1.87v0.78c0.45-0.67,1.14-0.98,2.02-0.98c0.41,0,0.85,0.13,1.09,0.34L286.3,469.88z"/>
			<path id="XMLID_331_" class="st31" d="M293.97,471.76c0,0.22-0.02,0.49-0.04,0.65h-5.08c0.21,1.04,0.93,1.49,1.84,1.49
				c0.62,0,1.29-0.25,1.81-0.69l1.13,1.24c-0.81,0.75-1.85,1.09-3.06,1.09c-2.2,0-3.72-1.5-3.72-3.75c0-2.26,1.48-3.8,3.63-3.8
				C292.54,467.99,293.96,469.52,293.97,471.76z M288.85,471.09h3.17c-0.18-0.92-0.73-1.44-1.56-1.44
				C289.55,469.65,289.02,470.2,288.85,471.09z"/>
			<path id="XMLID_328_" class="st31" d="M301.62,471.76c0,0.22-0.02,0.49-0.04,0.65h-5.08c0.21,1.04,0.93,1.49,1.84,1.49
				c0.62,0,1.3-0.25,1.81-0.69l1.13,1.24c-0.81,0.75-1.85,1.09-3.06,1.09c-2.2,0-3.72-1.5-3.72-3.75c0-2.26,1.48-3.8,3.63-3.8
				C300.2,467.99,301.61,469.52,301.62,471.76z M296.5,471.09h3.17c-0.18-0.92-0.73-1.44-1.56-1.44
				C297.21,469.65,296.67,470.2,296.5,471.09z"/>
			<path id="XMLID_325_" class="st31" d="M309.96,471.76c0,2.15-1.5,3.78-3.47,3.78c-0.96,0-1.64-0.38-2.11-0.93v3.71h-1.92v-10.13
				h1.89v0.79c0.47-0.58,1.15-0.98,2.14-0.98C308.47,467.99,309.96,469.61,309.96,471.76z M304.29,471.76
				c0,1.13,0.75,1.98,1.84,1.98c1.14,0,1.85-0.88,1.85-1.98c0-1.09-0.71-1.98-1.85-1.98C305.04,469.79,304.29,470.63,304.29,471.76z
				"/>
			<path id="XMLID_322_" class="st31" d="M313.07,465.83c0,0.7-0.54,1.23-1.24,1.23c-0.7,0-1.23-0.53-1.23-1.23
				c0-0.7,0.53-1.24,1.23-1.24C312.53,464.59,313.07,465.14,313.07,465.83z M312.81,475.35h-1.93v-7.17h1.93V475.35z"/>
			<path id="XMLID_320_" class="st31" d="M316.03,470.74l2.7-2.55h2.37l-3.48,3.38l3.5,3.8h-2.38l-2.72-2.9v2.9h-1.93V464.7h1.93
				V470.74z"/>
		</g>
		<g>
			<path class="st31" d="M184.41,475.29v-1.05c-0.53,0.72-1.39,1.23-2.39,1.23c-1.85,0-3.15-1.41-3.15-3.71
				c0-2.26,1.29-3.72,3.15-3.72c0.95,0,1.82,0.47,2.39,1.25v-3.76h1.1v9.77H184.41z M184.41,473.37v-3.21
				c-0.4-0.62-1.24-1.14-2.12-1.14c-1.42,0-2.27,1.17-2.27,2.74c0,1.57,0.85,2.72,2.27,2.72
				C183.17,474.48,184.02,473.99,184.41,473.37z"/>
			<path class="st31" d="M186.93,471.74c0-2.05,1.46-3.71,3.49-3.71c2.14,0,3.4,1.67,3.4,3.79v0.28h-5.73
				c0.09,1.33,1.03,2.45,2.55,2.45c0.81,0,1.63-0.32,2.18-0.89l0.53,0.72c-0.7,0.7-1.65,1.08-2.81,1.08
				C188.44,475.46,186.93,473.96,186.93,471.74z M190.4,468.95c-1.51,0-2.26,1.27-2.31,2.36h4.64
				C192.72,470.25,192.02,468.95,190.4,468.95z"/>
			<path class="st31" d="M194.61,474.35l0.57-0.79c0.47,0.54,1.36,1.01,2.33,1.01c1.08,0,1.67-0.51,1.67-1.22
				c0-1.71-4.38-0.66-4.38-3.28c0-1.1,0.95-2.04,2.64-2.04c1.2,0,2.05,0.45,2.62,1.03l-0.51,0.76c-0.42-0.51-1.2-0.89-2.11-0.89
				c-0.97,0-1.57,0.48-1.57,1.11c0,1.55,4.38,0.53,4.38,3.28c0,1.19-0.95,2.14-2.78,2.14C196.31,475.46,195.33,475.11,194.61,474.35
				z"/>
			<path class="st31" d="M201.48,466.47c0-0.41,0.34-0.75,0.73-0.75c0.41,0,0.75,0.34,0.75,0.75c0,0.41-0.34,0.73-0.75,0.73
				C201.81,467.2,201.48,466.88,201.48,466.47z M201.67,475.29v-7.08h1.1v7.08H201.67z"/>
			<path class="st31" d="M204.58,477.11l0.56-0.82c0.59,0.7,1.29,0.97,2.3,0.97c1.17,0,2.27-0.57,2.27-2.12v-1.01
				c-0.51,0.72-1.38,1.26-2.37,1.26c-1.85,0-3.15-1.38-3.15-3.66c0-2.27,1.29-3.68,3.15-3.68c0.95,0,1.8,0.47,2.37,1.25v-1.07h1.1
				v6.87c0,2.34-1.64,3.08-3.37,3.08C206.24,478.16,205.42,477.92,204.58,477.11z M209.71,473.25v-3.09
				c-0.38-0.62-1.23-1.14-2.11-1.14c-1.42,0-2.27,1.13-2.27,2.7c0,1.55,0.85,2.7,2.27,2.7
				C208.48,474.41,209.33,473.87,209.71,473.25z"/>
			<path class="st31" d="M217.41,475.29v-4.63c0-1.25-0.63-1.64-1.58-1.64c-0.86,0-1.68,0.53-2.09,1.1v5.17h-1.1v-7.08h1.1v1.03
				c0.5-0.59,1.46-1.2,2.52-1.2c1.48,0,2.26,0.75,2.26,2.29v4.97H217.41z"/>
			<path class="st31" d="M219.93,471.74c0-2.05,1.46-3.71,3.49-3.71c2.14,0,3.4,1.67,3.4,3.79v0.28h-5.73
				c0.09,1.33,1.02,2.45,2.55,2.45c0.81,0,1.63-0.32,2.18-0.89l0.53,0.72c-0.7,0.7-1.66,1.08-2.81,1.08
				C221.44,475.46,219.93,473.96,219.93,471.74z M223.4,468.95c-1.51,0-2.26,1.27-2.31,2.36h4.64
				C225.72,470.25,225.02,468.95,223.4,468.95z"/>
			<path class="st31" d="M233.35,475.29v-1.05c-0.53,0.72-1.39,1.23-2.39,1.23c-1.85,0-3.15-1.41-3.15-3.71
				c0-2.26,1.29-3.72,3.15-3.72c0.95,0,1.82,0.47,2.39,1.25v-3.76h1.1v9.77H233.35z M233.35,473.37v-3.21
				c-0.4-0.62-1.25-1.14-2.12-1.14c-1.42,0-2.27,1.17-2.27,2.74c0,1.57,0.85,2.72,2.27,2.72
				C232.11,474.48,232.95,473.99,233.35,473.37z"/>
			<path class="st31" d="M239.69,475.29v-9.77h1.1v3.76c0.57-0.78,1.42-1.25,2.39-1.25c1.85,0,3.15,1.46,3.15,3.72
				c0,2.3-1.3,3.71-3.15,3.71c-1,0-1.86-0.51-2.39-1.23v1.05H239.69z M242.9,474.48c1.44,0,2.29-1.16,2.29-2.72
				c0-1.57-0.85-2.74-2.29-2.74c-0.86,0-1.73,0.53-2.11,1.14v3.21C241.17,473.99,242.04,474.48,242.9,474.48z"/>
			<path class="st31" d="M247.53,477.06c0.16,0.07,0.43,0.12,0.6,0.12c0.48,0,0.81-0.16,1.05-0.75l0.47-1.07l-2.96-7.15h1.19
				l2.36,5.8l2.34-5.8h1.2l-3.54,8.51c-0.42,1.02-1.14,1.42-2.08,1.44c-0.23,0-0.6-0.04-0.81-0.1L247.53,477.06z"/>
		</g>
	</g>
</g>
</svg>
